<?xml version="1.0" encoding="UTF-8" standalone="no"?>
<svg
   xmlns:dc="http://purl.org/dc/elements/1.1/"
   xmlns:cc="http://creativecommons.org/ns#"
   xmlns:rdf="http://www.w3.org/1999/02/22-rdf-syntax-ns#"
   xmlns:svg="http://www.w3.org/2000/svg"
   xmlns="http://www.w3.org/2000/svg"
   id="svg8"
   version="1.1"
   viewBox="0 0 210 297"
   height="297mm"
   width="210mm">
  <defs
     id="defs2" />
  <metadata
     id="metadata5">
    <rdf:RDF>
      <cc:Work
         rdf:about="">
        <dc:format>image/svg+xml</dc:format>
        <dc:type
           rdf:resource="http://purl.org/dc/dcmitype/StillImage" />
        <dc:title></dc:title>
      </cc:Work>
    </rdf:RDF>
  </metadata>
  <g
     id="layer1">
    <g
       transform="translate(650.11905,2.2678571)"
       id="g21">
      <g
         transform="translate(254.30696,-59.066565)"
         id="g48">
        <g
           transform="matrix(0.51667319,0,0,0.51667319,-376.65899,142.84201)"
           id="g75">
          <g
             style="clip-rule:evenodd;fill-rule:evenodd"
             transform="matrix(1.435413,0,0,1.435413,-913.24883,-46.447984)"
             id="g167">
            <g
               transform="matrix(1.0338707,0,0,1.0338707,46.052812,37.765458)"
               id="g195">
              <g
                 transform="matrix(0.17076801,0,0,0.17076801,263.00333,-3.1517999)"
                 id="g222">
                <g
                   transform="translate(0.24661609,-684.82614)"
                   id="g249">
                  <g
                     transform="translate(-1667.654,259.23141)"
                     id="g276">
                    <g
                       transform="translate(-8.1647688,-608.27527)"
                       id="g303">
                      <g
                         id="g330">
                        <path
                           id="path336"
                           d="m 115.48441,1875.5362 c -9.636,-2.9975 -13.7295,-5.1656 -23.764797,-12.5871 -23.4948,-17.3752 -21.2633,-50.8243 4.3671,-65.4625 12.471797,-7.1229 23.829097,-9.3403 35.156997,-6.8641 26.898,5.8798 39.0588,18.1997 39.1924,39.7049 0.074,11.9721 1.7278,15.3814 5.8294,12.0201 6.5528,-5.3702 22.7131,-29.3363 29.9059,-44.351 16.2413,-33.9034 26.3135,-74.7501 32.4872,-131.7481 2.8694,-26.4917 3.006,-399.8383 0.1472,-402.6995 -2.5297,-2.532 -10.7723,3.8048 -36.6386,28.1675 -16.5103,15.5506 -54.1265,58.3029 -72.094,81.9379 -21.2278,27.9236 -55.606797,61.6036 -78.466597,76.8712 -30.1585,20.1423 -54.3226005,27.9055 -91.3534,29.3491 -28.5106,1.1115 -64.720103,-2.6494 -72.597303,-7.5404 -4.3867,-2.7237 1.2406,-6.1994 13.321803,-8.2282 40.7458,-6.8425 83.5229,-30.213 150.6533,-82.3067 29.0971,-22.5796 53.608897,-43.8211 102.592297,-88.9045 37.5999,-34.6063 47.5285,-44.6927 46.537,-47.2764 -0.7459,-1.944 -6.5248,-2.5912 -30.5697,-3.4234 -42.3245,-1.465 -61.1254,-6.8461 -85.420397,-24.4491 -22.1591,-16.0552 -35.2286,-36.145 -42.1234,-64.7496 -4.6047,-19.1036 -4.4698,-59.1665 0.2512,-74.5948 10.8428,-35.4345 34.5675,-57.5716 77.747297,-72.5446 25.2618,-8.75973 57.8385,-14.51043 94.5349,-16.68813 13.463,-0.7989 22.2315,-2.042 23.844,-3.3803 1.658,-1.376 2.5428,-4.73434 2.5284,-9.59734 -0.03,-10.2326 -1.39,-14.47234 -5.0103,-15.62138 -5.84,-1.85352 -145.182397,4.17133 -171.640897,7.42138 -43.5908,5.3545 -57.8111005,9.7461 -73.8907005,22.81934 -38.2967995,31.13663 -79.2082995,55.89593 -134.9812025,81.68943 -16.5666,7.6616 -39.4293,16.6245 -42.4342,16.6356 -5.4276,0.02 -0.085,-5.7974 10.1034,-11.0013 30.9335,-15.7999 71.082,-53.64 93.533003,-88.15533 14.8531,-22.83454 39.8317,-70.73358 39.8317,-76.38139 0,-0.902 2.3769,-3.94385 5.2821,-6.75965 l 5.2821,-5.11964 11.4679,7.79816 c 17.2943995,11.76015 29.0303995,14.3401 70.919,15.59031 55.960297,1.67017 180.836597,-3.86698 187.922997,-8.33273 2.8566,-1.80023 3.6247,-3.75857 3.579,-9.12517 -0.096,-11.22812 -7.1003,-39.78115 -13.5735,-55.32929 -9.1884,-22.07013 -9.4904,-20.20678 3.2744,-20.20678 7.0438,0 16.4593,1.53939 26.0328,4.25623 12.2967,3.48963 15.4433,3.88665 17.4703,2.20436 1.3598,-1.12851 6.1443,-9.40893 10.6323,-18.40095 11.9757,-23.99423 48.7516,-70.65525 52.6302,-66.77671 1.1255,1.12556 -0.5362,16.45775 -4.94,45.57796 -4.406,29.13546 -9.1573,73.95345 -10.1485,95.72888 l -0.9727,21.36795 3.8772,1.4276 c 8.9539,3.29688 87.5954,6.86037 154.2156,6.98799 59.962,0.11494 69.028,-0.19848 77.594,-2.68187 11.1012,-3.21839 21.7669,-8.36755 29.8159,-14.39453 3.0623,-2.29299 6.8444,-4.16907 8.4046,-4.16907 4.2021,0 9.865,8.45955 18.361,27.42855 8.4315,18.82503 24.2814,48.48245 31.9456,59.77469 14.3442,21.13423 38.721,48.21623 55.3451,61.48683 9.8333,7.8497 33.9201,24.28 35.5945,24.28 1.5867,0 15.1975,10.4509 15.2635,11.7199 0.09,1.7303 -5.933,1.4994 -9.254,-0.3548 -1.5439,-0.862 -10.8676,-4.7984 -20.7195,-8.7476 -48.5953,-19.4799 -102.5798,-50.6456 -141.1667,-81.49693 -8.3639,-6.6872 -18.2459,-13.8569 -21.96,-15.93284 -18.3171,-10.2376 -62.956,-15.6527 -159.0091,-19.28913 -51.2225,-1.93922 -71.1277,-2.17868 -73.9568,-0.88964 -3.544,1.61476 -3.8709,2.71423 -3.8709,13.01877 0,6.6397 0.751,11.71924 1.8313,12.38694 1.0073,0.6225 12.1008,1.7863 24.6523,2.5863 60.0769,3.8291 103.0001,15.33163 134.0029,35.91023 14.9323,9.9114 29.5845,29.105 36.2618,47.5007 3.4039,9.3778 3.7028,12.8569 3.7028,43.0966 0,28.9134 -0.4136,34.2368 -3.4171,43.9772 -9.1387,29.637 -29.6205,54.993 -54.5968,67.5897 -21.9829,11.0871 -44.7162,15.3915 -81.4128,15.4151 -18.8597,0.011 -20.6109,0.2636 -20.6109,2.9596 0,3.009 12.3549,15.4904 45.1198,45.5819 10.1458,9.318 19.9939,18.3966 21.8848,20.1748 1.8908,1.7782 9.5935,8.6789 17.117,15.3349 7.5236,6.656 14.0429,12.5072 14.4875,13.0027 1.7302,1.9284 29.8269,25.4191 39.3041,32.8608 5.5002,4.3189 16.1188,12.6845 23.5968,18.5903 28.7668,22.7185 64.7585,45.7266 90.6705,57.9621 11.5588,5.458 35.3663,12.908 47.7301,14.936 14.3326,2.3509 17.0981,3.8341 13.6257,7.3075 -6.6415,6.6434 -60.058,11.1634 -89.2992,7.5563 -17.0974,-2.1091 -43.4649,-9.9982 -55.9265,-16.7331 -34.1032,-18.4314 -68.1782,-50.6374 -110.8244,-104.746 -36.0006,-45.6768 -84.1621,-93.7595 -93.9133,-93.7595 h -3.9864 l 0.028,128.9193 c 0.016,72.1049 0.7217,135.5043 1.6022,143.8617 2.7857,26.4412 11.3873,45.3846 27.7952,61.2133 21.6461,20.8822 51.1847,31.5586 102.3227,36.9836 30.3498,3.2196 34.7557,3.9074 34.7557,5.4252 0,1.4862 -18.8597,12.7982 -29.7467,17.8421 -38.2384,17.7156 -94.326,17.3388 -133.1023,-0.8943 -4.6581,-2.1903 -10.4777,-3.7515 -12.9324,-3.4692 -4.1021,0.4717 -4.83,1.6898 -8.9997,15.0621 -11.1119,35.6353 -14.1621,44.8997 -21.2891,64.6617 -16.4975,45.7447 -37.9224,84.9837 -58.8964,107.867 -15.9001,17.3475 -33.5118,29.4876 -50.0675,34.5124 -10.0088,3.0378 -48.4257,2.9206 -58.3871,-0.1781 z m 110.1651,-669.5248 c 5.497,-2.4752 8.6556,-5.3305 11.7639,-10.6344 l 4.2492,-7.2507 -0.4481,-81.0739 c -0.3746,-67.7851 -0.8228,-81.3054 -2.7341,-82.4861 -7.263,-4.4865 -55.7312,-2.9425 -76.49,2.4366 -28.0289,7.263 -43.7199,22.0727 -52.1361,49.2077 -3.4281,11.0529 -5.0462,50.6561 -2.7739,67.8947 4.2589,32.3112 23.2047,56.2763 50.4341,63.7958 6.6622,1.8398 15.3748,2.3348 34.7557,1.9747 22.1136,-0.411 26.9544,-0.9714 33.3793,-3.8644 z m 191.32,-1.6107 c 10.083,-5.2675 23.7411,-18.196 29.5433,-27.9653 9.4034,-15.8326 13.9192,-52.0754 10.2893,-82.5803 -5.1116,-42.957 -25.3504,-62.8824 -70.5469,-69.4549 -18.6207,-2.7078 -55.655,-2.8715 -60.2162,-0.2662 l -3.6372,2.0775 0.078,81.1744 c 0.07,73.1005 0.3513,81.7229 2.8289,86.6893 6.6016,13.2326 17.4926,16.3951 54.4807,15.8199 27.2865,-0.4244 27.5499,-0.4634 37.1804,-5.4944 z M 98.373713,1638.1226 c -9.9883,-4.4223 -14.2066,-13.7302 -10.204,-22.5151 1.8568,-4.0753 12.152897,-10.7877 16.547097,-10.7877 5.3661,0 11.1566,4.1243 14.2194,10.1279 2.6536,5.2015 2.8967,7.154 1.44,11.5678 -3.4912,10.5785 -12.9983,15.5938 -22.002497,11.6071 z m -28.1524,-27.9742 c -1.3337,-0.4853 -4.4253,-2.7463 -6.8703,-5.0245 -3.634,-3.3859 -4.4455,-5.5319 -4.4455,-11.7549 0,-6.6907 0.6921,-8.2205 5.7141,-12.6299 8.0688,-7.0844 13.9512,-6.7472 21.9573,1.2589 6.7929,6.793 7.5248,10.2375 3.9785,18.725 -3.2935,7.8824 -12.6525,12.2205 -20.3341,9.4254 z m 51.747697,-4.9299 c -7.212,-7.212 -8.2043,-12.3457 -3.8207,-19.7665 2.6367,-4.4637 11.3299,-9.73 16.0615,-9.73 8.6968,0 17.8738,11.0049 16.0608,19.2597 -1.6164,7.3594 -8.9537,14.6946 -15.7734,15.7691 -5.4653,0.8611 -6.6644,0.3316 -12.5282,-5.5323 z m -25.290297,-26.1309 c -5.9354,-3.6193 -10.292,-9.3359 -10.292,-13.5048 0,-8.202 10.7218,-18.9386 18.926297,-18.9525 4.9807,-0.01 16.6392,11.4269 16.6316,16.3132 -0.01,5.5653 -5.5112,13.8213 -11.158,16.7414 -6.2291,3.2212 -7.9663,3.1476 -14.107897,-0.5973 z M 444.17081,898.87605 c -1.9321,-0.37258 -5.3874,-2.55197 -7.6785,-4.84308 -7.0213,-7.02122 -5.0528,-22.34357 3.3631,-26.1781 12.5646,-5.72484 24.802,1.74121 24.802,15.13174 0,6.00791 -0.8399,8.2544 -4.2774,11.44013 -2.3525,2.1803 -5.2028,3.96417 -6.3339,3.96417 -1.1311,0 -3.0254,0.26159 -4.2094,0.58129 -1.1841,0.3197 -3.7338,0.27645 -5.6659,-0.0962 z m -28.8179,-29.08872 c -1.7782,-0.44469 -5.2335,-2.69253 -7.6785,-4.99516 -3.6315,-3.41996 -4.4455,-5.58501 -4.4455,-11.82318 0,-6.54287 0.7123,-8.23594 4.9736,-11.82162 7.5184,-6.32629 19.5674,-5.30603 25.2851,2.14103 1.0831,1.41069 1.9924,5.50215 2.0207,9.09212 0.087,11.07753 -10.1413,19.91122 -20.1554,17.40681 z m 54.9624,-0.75392 c -6.1223,-3.36689 -8.8178,-8.35507 -8.855,-16.387 -0.029,-6.33673 0.7467,-8.48106 4.2415,-11.71993 6.0252,-5.58402 16.2978,-5.4857 23.0797,0.22089 9.7603,8.21274 5.3417,24.47895 -7.628,28.08109 -7.2143,2.00364 -6.8274,2.01061 -10.8382,-0.19505 z m -29.3746,-29.578 c -6.3573,-2.76542 -8.6141,-6.81131 -8.6141,-15.4435 0,-5.24633 1.0235,-7.72025 4.7253,-11.42206 10.0417,-10.04174 27.6055,-3.30533 27.6055,10.58779 0,8.21057 -3.828,14.72884 -9.8913,16.8425 -6.4122,2.23529 -7.4896,2.19128 -13.8254,-0.56473 z m -175.1822,-52.11779 c -2.8868,-3.28795 -7.8591,-11.47169 -11.0495,-18.1861 -9.3647,-19.70858 -7.3088,-34.9656 7.0776,-52.52231 6.9143,-8.43798 13.579,-11.37049 33.5962,-14.78258 18.1188,-3.08851 24.662,-6.67537 38.3854,-21.04215 33.1663,-34.72108 32.1484,-33.80216 34.6598,-31.29079 2.0691,2.06916 1.8602,3.75491 -1.695,13.67316 -10.1225,28.24016 -16.9666,37.89796 -35.5117,50.11082 -10.6647,7.0233 -15.5689,11.62966 -22.8318,21.44555 -8.9441,12.08791 -23.0132,37.57709 -28.5377,51.70216 -3.3942,8.67841 -7.0535,8.91008 -14.0933,0.89224 z"
                           style="fill:#000000;stroke-width:1.61654174" />
                      </g>
                    </g>
                  </g>
                </g>
              </g>
            </g>
          </g>
        </g>
      </g>
    </g>
  </g>
</svg>
