<?xml version="1.0" encoding="utf-8"?>
<!-- Generator: Adobe Illustrator 24.2.3, SVG Export Plug-In . SVG Version: 6.00 Build 0)  -->
<svg version="1.1" id="Layer_1" xmlns="http://www.w3.org/2000/svg" xmlns:xlink="http://www.w3.org/1999/xlink" x="0px" y="0px"
	 viewBox="0 0 3401.57 3401.57" style="enable-background:new 0 0 3401.57 3401.57;" xml:space="preserve">
<path d="M745.97,2007.75c-1.66-11.65-4.34-23.55-5.86-35.64c-1.91-15.18-2.82-30.4-3.79-45.65c-0.74-11.59-1.76-23.16-5.08-34.41
	c-3.03-10.27-7.62-18.96-18.19-23.53c-6.33-2.74-5.71-9.89-9.48-16.76c6.83,2.07,10.55,5.51,14.21,8.9
	c18.29,16.97,28.22,38.43,32.78,62.55c2.53,13.38,4.2,26.91,4.46,40.57c0.27,14.19,5.93,26.41,13.87,37.79
	c13.99,20.06,32.1,34.7,56.13,40.56c14.04,3.42,27.97,3.16,38.33-9.41c6.68-8.1,9.01-18.17,8.66-28.07
	c-0.6-17.15-4.75-33.63-16.03-47.35c-8.86-10.78-19.58-18.01-34.39-16.62c-9.26,0.87-17.15,8.92-17.24,17.62
	c-0.07,6.94,1.48,8.56,8.59,8.37c5.86-0.15,11.46-0.24,13.89,6.75c2.37,6.8-1.18,13.01-8.34,13.73c-8.25,0.83-14.19-3.38-18.27-9.95
	c-5.68-9.14-7.34-19.15-4.57-29.73c3.53-13.48,15.29-19.91,28.24-17.53c18.11,3.32,32.61,12.68,44.12,26.92
	c13.97,17.29,23.3,36.4,22.92,59.2c-0.33,19.43-10.28,31.94-28.93,36.75c-20.48,5.28-39.57,1.18-57.61-8.92
	c-14.4-8.07-26.06-19.39-36.61-31.97c-2.51-2.99-4.37-6.65-8.69-9.27c0.24,12.45,4.1,23.23,8.62,33.75
	c5.57,12.94,13.46,24.45,22.8,34.99c3.46,3.91,7.16,6.02,12.83,6.1c24.23,0.37,44.27,10.63,60.94,27.76
	c6.53,6.71,7.48,13.54,3.95,20.99c-2.24,4.73-5.85,7.28-11.04,6.96c-5.52-0.34-10.39-2.04-12.99-7.67
	c-2.15-4.65,0.37-7.52,3.42-10.34c5.69-5.25,5.96-7.4,0.23-12.35c-9.87-8.52-21.59-11.87-34.39-9.76
	c-10.25,1.69-14.22,10.78-9.84,20.39c3,6.58,7.79,11.74,13.3,15.99c11.47,8.84,24.06,14.85,39.03,15.92
	c34.41,2.46,68.74,5.95,103.11,8.97c28.12,2.47,56.06,6.37,84.12,9.26c30.69,3.16,61.37,6.42,92.07,9.42
	c9.58,0.93,19.19,1.55,28.79,2.28c1.96,0.15,4.07-0.15,4.93,2.59c-6.62,2.04-13.02-0.31-19.47-0.57
	c-40.82-1.65-81.47-5.63-122.16-8.9c-26.13-2.1-52.25-4.29-78.42-6.02c-33.46-2.21-66.89-4.79-100.42-5.74
	c-5.98-0.17-12.03-0.07-17.81,1.56c-6.26,1.76-7.25,4.4-2.78,9.09c8.82,9.25,18.59,16.72,32.39,17.53
	c12.7,0.75,24.65,5.2,36.28,10.32c2.65,1.17,4.94,3.33,8.96,3.15c-6.84-13.3-19.61-20.17-29.1-30.27
	c11.92,2.24,20.62,9.9,29.68,16.98c22.17,17.32,36.7,39.94,46.65,65.96c4.18,10.92,10.11,20.96,19.09,28.86
	c7.98,7.02,16.34,10.93,27.86,9.77c25.09-2.51,50.32-3.7,75.52-5.14c35.78-2.05,71.51-4.98,107.22-7.91
	c20.5-1.68,40.94-4.06,61.39-6.26c2.03-0.22,3.88-0.88,6.19,2.04c-3.62,0.82-6.77,1.85-10,2.22
	c-55.39,6.32-110.8,12.45-166.18,18.86c-26.04,3.01-52.15,5.29-78.22,8.04c-19.78,2.09-39.73,2.9-59.25,7.18
	c-2.91,0.64-5.87,1.39-8.54,2.65c-4.27,2.01-4.41,4.43-0.48,7.3c5.14,3.76,11.14,5.9,16.94,8.41c9.96,4.31,19.96,5.55,30.92,3.76
	c39.97-6.52,80.3-10.25,120.63-13.67c21.5-1.83,43.08-2.61,64.57-4.54c32.71-2.93,65.49-5,98.09-9.09
	c15.48-1.94,31.03-3.24,46.54-4.95c2.03-0.22,3.92-0.73,6.13,1.31c-1.67,2.07-4.01,2.47-6.43,2.78
	c-34.57,4.36-69.09,9.12-103.76,12.73c-58.08,6.05-116.14,12.29-174.04,19.97c-4.15,0.55-8.27,1.4-14.2,2.41
	c5.12,2.81,8.85,4.71,12.43,6.85c8.55,5.12,14.46,11.96,12.82,22.71c-0.63,4.13,1.23,4.95,4.55,5.94
	c10.21,3.05,20.42,6.28,28.8,13.3c11.13,9.32,9.62,23.3-3.21,30.35c-3.52,1.93-7.23,3.38-11.2,4.07
	c-5.89,1.02-11.76,2.06-17.81,1.73c-3.96-0.22-7.94-0.04-11.97-0.04c-0.37,3.77,2.44,3.95,4.25,4.93c3.22,1.73,6.56,3.25,9.83,4.89
	c12.76,6.4,24.95,6.43,39.07,1.86c70.85-22.93,140.9-48.41,212.7-68.38c27.22-7.57,54.51-14.88,81.77-22.29
	c2.42-0.66,4.92-1.96,8.69,1.37c-94.01,23.35-183.15,58.01-273.42,91c5.81,3.56,12.09,2.99,17.73,4.81
	c5.1,1.64,10.12,3.33,14.68,6.13c5.96,3.68,10.36,8.63,10.22,16.05c-0.08,4.39,1.94,5.53,5.79,6.13
	c10.54,1.65,20.92,3.98,29.89,10.31c11.27,7.96,11.99,20.51,1.52,29.47c-7.96,6.81-17.88,8.46-27.76,10.02
	c-5.75,0.91-11.55,1.54-18.86,2.49c8.44,5.77,16.78,7.98,24.66,11.14c1.84,0.74,3.83,1.1,5.72,1.72c13.17,4.36,26.07,7,39.42-0.38
	c5.36-2.96,12.05-3.59,18.18-5.06c1.99-0.48,3.91-0.71,4.97-2.6c-3.85-1.89-7.9-3.47-11.52-5.73c-8.13-5.06-10.51-12.65-6.9-21.54
	c4.41-10.88,12.41-18.8,21.85-25.32c16.89-11.66,35.93-18.8,55.22-25.12c39.18-12.83,78.51-25.18,117.78-37.75
	c3.14-1,6.25-2.81,9.52,0.79c-5.92,4.27-12.98,5.57-19.48,8c-38,14.19-76.12,28.06-114.13,42.24c-12.79,4.77-25.28,10.3-36.06,19
	c-4.72,3.81-8.77,8.16-11.55,13.59c-6.47,12.62-1.74,23.25,11.95,26.69c2.88,0.72,5.85,1.22,8.81,1.54
	c4.11,0.44,7.62,1.73,10.36,5.71c-14.04,3.28-27.83,5.53-40.82,10.81c-6.85,2.79-13.42,5.97-18.27,11.76
	c-4.33,5.17-3.72,7.59,2.4,10.7c7.63,3.88,16.09,3.83,24.27,4.9c4.91,0.65,9.98,0.07,14.98,0.15c2.77,0.05,5.18-0.43,7.26-2.52
	c10.19-10.24,23.35-13.46,37-15.48c5.23-0.77,10.44-1.43,15.67,0.13c6.33,1.89,10.47,7.18,10.13,13.14
	c-0.32,5.59-5.55,11.19-11.49,12.28c-4.67,0.86-9.46-2.22-11.91-7.17c-1.4-2.84-0.45-5.89-1.5-9.31c-4.81-0.78-8.85,1.4-12.6,3.98
	c-7.39,5.08-12.31,12.15-14.84,20.67c-2.25,7.59,0.17,12.74,7.66,14.61c11.08,2.78,21.73,3.88,31.25-5.9
	c10.42-10.69,24-16.62,38.65-19.57c7.93-1.59,15.88-2.01,22.99,3.26c5.65,4.19,8.1,9.3,6.53,14.35
	c-2.18,6.97-7.84,11.69-14.28,12.17c-4.37,0.33-7.92-0.79-10.08-4.84c-2.05-3.86-1.07-9.12,2.33-12.67c0.85-0.89,2.5-1.04,2.46-3.59
	c-2.38-1.41-5.15-1.14-7.92-0.18c-11.44,3.99-20.54,11.11-26.5,21.6c-6.39,11.25-2.14,18.5,10.93,19.62
	c16.11,1.38,30.07-4.15,42.73-13.58c4.79-3.57,9.15-7.75,14.05-11.15c7.55-5.22,15.96-7.86,25.27-6.95
	c0.54,3.63-2.59,3.84-4.29,4.94c-13.77,8.9-26.08,19.56-37.66,31.07c-2.4,2.39-6.88,5.27-5.07,8.8c2.46,4.79,7.33,0.73,10.81,0.23
	c5.9-0.85,11.07-4.17,15.97-7.8c23.01-17.05,44.52-35.92,65.75-55.07c29.17-26.3,59.45-51.26,90.51-75.25
	c30.29-23.4,58.33-49.47,88.17-73.37c3.11-2.49,6.33-4.86,9.59-7.17c1.69-1.2,3.59-1.65,6.26,0.19
	c-77.06,64.1-151.22,131.01-223.25,200.82c8.22-2.22,16.39-4.61,24.66-6.61c9.36-2.27,18.77-3.56,28.48-1.65
	c10.61,2.09,16.65,11.18,15.03,22.22c-1.76,12-7.62,21.91-17.49,29.18c-14.18,10.46-29.98,15.15-47.64,13.18
	c-3.82-0.43-6.98-1.87-9.67-4.63c-4.88-5.01-6.08-11.54-2.84-16.27c3.36-4.9,11.36-7.43,17.02-5.19c3.82,1.51,5.97,4.33,4.94,8.61
	c-0.52,2.19-1.65,4.23-2.55,6.46c11.43,5.93,21.03,2.28,29.51-5.26c8.32-7.41,9.2-17.38,7.41-27.64c-0.67-3.86-3.88-6.05-7.48-7.42
	c-7.32-2.79-14.84-3.48-22.53-2.03c-18.51,3.49-35.35,9.93-50.33,22.3c-22.86,18.88-47.92,34.8-73.91,49.15
	c-21.81,12.04-45.1,17.57-70.05,15.87c-7.05-0.48-13.71-2.49-20.32-4.75c-1.35-0.46-3.63-0.97-2.97-3.14
	c0.72-2.37,2.82-2.53,4.92-1.79c3.13,1.1,6.16,2.51,9.35,3.34c11.9,3.11,23.64,1.93,35.37-1.36c17.2-4.82,32.82-12.86,47.42-22.91
	c12.6-8.68,24.87-17.85,37.25-26.86c1.02-0.74,1.76-1.87,3.55-3.82c-5.81,0.45-10.44,1.11-15.05,1.08c-3.6-0.03-7.58-0.27-9.7-3.98
	c-2.12-3.71,1.07-6.15,2.59-8.95c0.77-1.42,2.49-2.3,2.41-4.77c-5.58-0.42-10.81,1.86-16.17,2.65c-7.74,1.13-15.25,0.86-22.7-1.15
	c-9.89-2.66-13.33-6.68-13.57-16.89c-0.19-8.1-1.31-7.22-7.54-6.47c-8.65,1.05-17.13,1.37-25.72-0.19c-3.31-0.6-6.54-1.31-9.58-2.68
	c-9.62-4.34-13.02-12.08-9.81-22.04c0.7-2.18,2.43-4.01,2.18-7.22c-10.34-0.67-20.76-1.54-31.19-1.96
	c-7.01-0.28-13.96-0.9-20.69-2.78c-11.77-3.29-14.45-9.55-9.36-21.11c0.53-1.21,1.09-2.4,1.79-3.92c-2.33-0.75-4.48-1.85-6.71-2.08
	c-36.83-3.81-67.79-20.28-95.34-44.11c-10.56-9.14-21.16-18.24-31.4-27.71c-9.67-8.95-19.89-16.65-33.22-19.18
	c-1.2-0.23-2.45-1.08-3.03-2.94c8.13-4.06,17.75-1.03,26.77-6.21c-26.16-9.79-50.02-22.81-70.93-40.93
	c-21.01-18.2-38.15-39.36-52.69-64.2c6.83-1.56,12.58-0.09,17.73-2.45c0.29-2.89-2.2-2.78-3.82-3.54
	c-5.72-2.7-11.55-5.18-17.16-8.08c-6.36-3.29-12.21-6.64-20.12-6.45c-9.12,0.22-17.06-4.99-24.52-10.14
	c-20.56-14.2-35.22-33.16-44.97-56.04c-3.52-8.26-6.91-16.58-10.63-24.75c-3.03-6.66-6.33-13.23-11.2-18.82
	c-2.95-3.39-5.97-6.36-11.07-3.94c-3.09,1.47-5.91-0.27-8.53-1.57c-3.29-1.63-5.12-4.69-4.08-8.25c1.12-3.82,4.89-3.15,7.68-2.71
	c10.44,1.65,19.71,5.68,26.78,13.98c13.08,15.35,22.49,32.9,31.06,51c10.14,21.42,23.78,40.01,43.75,53.36
	c1.63,1.09,3.38,1.98,5.98,3.5c-1.99-12.23,7.75-12.2,14.35-15.48c-0.63-3.41-3.9-3.25-6.11-4.27
	c-11.19-5.16-22.44-10.14-31.93-18.27c-8.85-7.58-13.12-17.12-9.59-28.38c1.46-4.66,0.04-5.8-3.17-7.43
	c-8.7-4.4-16.48-9.97-22.3-17.97c-2.56-3.52-4.44-7.35-5.98-11.45c-3.06-8.12-1.92-14.99,4.97-20.6c1.02-0.83,2.27-1.46,2.48-3.35
	c-8.88-5.98-17.99-11.95-26.91-18.18c-3.25-2.27-6.34-4.91-9.06-7.79c-5.8-6.13-4.59-10.54,3.24-13.19
	c4.13-1.4,8.44-1.64,12.82-1.89c0.35-3.45-2.56-3.48-4.24-4.55c-12.1-7.76-23.62-16.2-32.34-27.86c-1.98-2.65-3.79-5.49-5.29-8.44
	c-4.69-9.24-3.68-14.36,3.88-21.16c0.97-0.87,2.01-1.66,3.4-2.8c-10.87-12.51-21.31-24.96-29.07-39.35
	c-0.79-1.46-2.1-2.77-2.48-4.31c-3.23-12.99-12.87-18.75-24.27-23.92c-21.85-9.92-42.7-21.85-60.97-37.65
	c-15.15-13.1-29.28-27.24-38.86-45.17c-4.61-8.63-7.71-17.73-6.13-27.74c2.6-16.51,14.91-24.72,31.03-20.81
	c19.62,4.76,32.27,21.95,30.92,42.05c-0.8,11.83-6.33,18.21-15.63,17.98c-11.27-0.27-21.72-9.22-22.26-19.07
	c-0.32-5.84,2.82-10.58,7.55-11.39c5.07-0.87,9.15,2.04,11.05,7.87c0.1,0.32,0.15,0.67,0.32,0.94c1.42,2.25-1.7,7.21,3.03,7.02
	c3.83-0.15,4.38-4.7,5-7.81c1.45-7.3-5.41-18.55-12.41-21.01c-5.24-1.84-11.86-0.07-15.27,4.53c-4.99,6.74-7.1,14.27-4.79,22.59
	c1.8,6.47,4.6,12.48,8.6,17.9c22.6,30.63,52.6,51.34,87.55,65.44C743,2008.83,744.23,2009.26,745.97,2007.75z M970.57,2289.98
	c-12.25-8.56-21.86-17.82-28.85-29.08c-4.59-7.39-10.52-10.48-18.44-11.36c-6.61-0.74-13.23-1.31-19.85-0.18
	c-3.94,0.68-7.78,1.73-11.14,4c-6.92,4.66-8.05,11.42-2.73,17.88c5.16,6.25,11.76,10.56,19.15,13.94
	C928.16,2294.08,948.23,2294.99,970.57,2289.98z M929.51,2242.4c-2.1-7.28-7.34-12.83-9.63-19.66
	c-3.97-11.83-13.15-16.9-24.15-19.75c-5.74-1.49-11.62-3.14-17.48-3.28c-7.23-0.18-14.55,0.87-20.23,6.43
	c-3.14,3.07-4.42,6.58-3.1,10.82c2.98,9.54,19.25,20.46,29.5,19.87c11.67-0.67,23.12,0.21,34.4,3.67
	C922.11,2241.51,925.45,2243.64,929.51,2242.4z M1051.16,2455.07c12.89,7.18,23.39,14.09,33.11,22.09c1.98,1.63,4.31,1.69,6.56,1.9
	c11.51,1.03,22.52-1.14,32.73-6.43c9.41-4.88,9.82-11.92,1.28-18.51c-7.25-5.6-16.01-7.82-24.58-10.39
	c-3.21-0.96-6.51-1.53-9.81-0.54C1078.15,2446.87,1065.87,2450.61,1051.16,2455.07z M1098.34,2488.06
	c3.98,5.92,9.31,8.75,13.46,12.77c10.81,10.45,24.07,12.07,37.98,9.88c8.97-1.41,17.14-5.26,23.02-12.66
	c4.75-5.98,4.07-10.76-2.28-15.04c-5.28-3.56-11.33-5.35-17.43-7.08c-3.52-1-6.26-0.58-9.27,1.47c-6.99,4.74-14.93,7-23.28,7.96
	C1113.47,2486.17,1106.4,2487.07,1098.34,2488.06z M979.36,2384.39c8.72,10.53,16.77,18.09,25.75,24.05
	c14.31,9.49,35.48,7.39,47.45-3.01c5.53-4.8,6.1-11.07,1.05-15.54c-5.76-5.1-12.62-8.53-20.06-10.73c-2.49-0.74-4.34,0.3-6.47,1.51
	c-9.88,5.61-20.48,7.01-31.66,5.16C990.93,2385.09,986.3,2384.99,979.36,2384.39z M987.89,2375.56c9.18,0.18,17.97-1.19,25.9-6.08
	c5.09-3.14,6.3-6.94,2.96-11.7c-6.15-8.8-15.02-15.43-25.36-15.96c-11.75-0.59-23.7,2.25-35.53,3.8c-2.77,0.36-3.96,2.14-2.33,5.02
	c4.12,7.27,9,13.98,14.5,20.24c2.07,2.35,4.9,3.44,7.94,3.77C979.92,2375.08,983.91,2375.27,987.89,2375.56z M2625.7,2006.88
	c0.33,8.59,2.68,17.07,1.87,25.73c-0.22,2.32,0.06,4.69-0.26,6.98c-1.76,12.65-3.69,13.61-14.93,7.3c0,3.13-0.61,6.24,0.11,9
	c2.18,8.34,0.98,16.52-0.41,24.7c-1.67,9.83-5.73,12.96-15.71,12.65c-1.59-0.05-3.18-1.13-5.38,0.39
	c1.67,8.47,1.13,17.38,1.24,26.27c0.09,7.17-1.72,13.89-5.14,20.09c-5.61,10.16-11.69,12.53-24.3,9.82
	c-2.44,5.59-2.56,11.5-2.59,17.48c-0.04,9.02-1.45,17.89-4.01,26.53c-2.76,9.35-7.55,16.47-18.85,15.47c-4-0.35-4.96,1.74-5.24,5.33
	c-2.19,28.6-14.99,52.73-31.68,75.29c-14.46,19.55-30.04,38.15-46.71,55.84c-7.17,7.61-12.32,16.5-16.45,27.66
	c-3.81-9.67,0.89-19.33-4.12-28.56c-1.48,9.17-2.77,17.32-4.14,25.47c-0.27,1.63-0.67,3.27-1.26,4.82
	c-1.54,4.06-2.94,8.59-7.79,9.64c-5.08,1.1-7.78-2.78-10.37-6.31c-0.78-1.07-1.38-2.27-1.9-3.15c-3.87,2.35-3.21,5.25-3.52,7.79
	c-1.05,8.64-3.22,17.03-6.62,25.01c-6.23,14.6-16.41,18.74-31.35,13.12c-0.91-0.34-1.91-0.46-3.25-0.78
	c-3.5,9.72-6.14,19.73-11.28,28.72c-1.48,2.6-2.76,5.36-4.55,7.74c-11.36,15.09-21.23,16.96-37.52,7.33
	c-0.51-0.3-1.23-0.26-2.44-0.5c-4.76,11.46-9.63,23.02-14.32,34.65c-0.59,1.46-0.45,3.29-0.35,4.93
	c2.08,35.39-3.52,69.52-17.58,102.07c-6.64,15.37-15.18,29.68-28.96,39.99c-4.8,3.59-9.78,6.67-15.82,8.18
	c-9.93,2.48-17.58-0.46-23.87-8.14c-13.21-16.13-6.9-49.89,21.09-56.24c3.45-0.78,6.94-2.07,10.72-1.38
	c10.68,1.94,15.59,9.57,14.25,22.5c-0.94,9.02-9.43,16.92-18.08,16.96c-4.14,0.02-6.85-1.62-8.43-5.6c-1.7-4.29-0.42-7.75,2.2-11.02
	c2.27-2.83,6.4-3.53,8.21-6.94c-5.88-5.09-7.53-5.33-13.92-2.12c-6.91,3.48-11.18,10.71-10.53,17.84
	c0.61,6.78,6.15,12.45,13.29,14.48c2.87,0.82,5.24,0.16,7.74-0.61c9.86-3.05,17.52-9.12,23.92-17.13
	c14.37-17.99,20.7-39.19,24.99-61.27c2.42-12.48,2.92-25.09,2.65-37.76c-0.07-3.18-0.2-5.87-4.59-6c-3.94-0.12-5.42-3.57-6.65-6.65
	c-1.46-3.66-2.49-7.49-3.83-11.62c-2.38,2.25-2.55,5.15-3.36,7.83c-3.39,11.19-7.38,22.05-14.98,31.29
	c-2.4,2.91-5.12,5.26-8.18,7.18c-9.03,5.65-15.62,4.61-22.95-3.32c-0.89-0.96-1.76-1.94-3.08-3.39c-4.34,7.53-8.41,14.7-12.6,21.81
	c-3.38,5.74-6.85,11.42-11.86,15.98c-6,5.47-10.49,4.76-13.77-2.62c-2.18-4.89-3.23-10.14-2.7-16.24c-3.96,1.21-3.99,4.61-4.97,6.92
	c-4.7,11.1-10.38,21.56-18.02,30.94c-2.14,2.63-4.54,4.86-7.27,6.78c-10.21,7.17-16.02,7.01-26.3-0.94
	c-5.61,5.52-9.58,12.58-15.56,17.83c-4.77,4.19-9.5,8.36-15.63,10.48c-11.22,3.88-20.07-1.35-21.91-13.11
	c-1.21-7.74,0.09-15.32,2.61-22.61c2.91-8.38,6.27-16.6,9.88-26.05c-11.61,3.98-19.74,10.96-27.99,19.71
	c0.53-8.07,4.72-13.16,8.83-18.09c8.84-10.58,19.79-18.71,31.47-25.87c11.94-7.32,24.52-13.32,37.68-18.16
	c14.93-5.49,27.97-13.77,38.19-26.24c2.66-3.25,3.77-6.29,3.8-10.71c0.15-23.25,1.56-46.46,2.8-69.69
	c1.24-23.24,3.99-46.33,5.13-69.57c1.03-20.89,2.86-41.75,3.17-62.68c0.05-3.32,0.81-5.87,5.09-6.68
	c-1.06,17.71-0.09,35.22-2.23,52.67c-0.85,6.91-0.51,13.96-0.83,20.94c-1.77,38.21-4.58,76.4-3.26,114.67
	c0.84,24.21,2.11,48.45,5.92,72.44c0.31,1.96,0.87,3.89,1.37,5.82c1.05,4.09,1.12,9.85,6.02,10.37c4.45,0.47,6.84-4.63,9.14-8.21
	c2.34-3.63,4.33-7.49,6.34-11.32c3.17-6.03,3.56-11.8,1.96-18.9c-3.74-16.64-2.78-33.15,8.27-47.56c4.18-5.45,9.17-9.75,16.07-11.05
	c6.95-1.31,11.71,2.33,12.59,9.36c0.2,1.63,0.15,3.35-0.1,4.97c-1.08,6.85-5.25,11.73-10.1,12.02c-4.31,0.25-6.36-1.81-9.52-9.76
	c-4.68,2.78-5.45,7.64-5.84,12.05c-1.05,11.72,2.54,22.44,9.26,31.9c4.68,6.59,8.99,6.82,14.99,1.34c2.67-2.43,5.22-5.31,6.86-8.49
	c8.4-16.31,14.34-33.45,8.5-51.79c-4.54-14.26,1.52-24.78,10.14-37.45c0,7.55-0.22,13.08,0.04,18.58c0.69,14.3,2.34,28.46,7.44,42
	c1.18,3.14,2.18,7.29,5.54,7.75c4.19,0.57,5.67-3.83,7.38-7c3.81-7.08,5.91-14.81,8.56-22.34c1.36-3.88-0.4-7.18-1.59-10.59
	c-4.79-13.75-4.26-27.44,0.45-41.05c1.98-5.73,4.9-10.94,9.47-15.08c5.87-5.33,12.83-6.48,18.23-3.02
	c4.96,3.17,7.76,11.37,6.01,17.87c-1.24,4.61-3.9,7.73-9.03,7.82c-5.01,0.09-8.24-2.15-9.04-7.34c-0.19-1.23-0.04-2.64-1.53-3.43
	c-2.96,0.56-2.97,3.47-3.36,5.42c-2.8,13.8-0.37,26.53,9.19,37.22c5.67,6.34,13.31,6.91,19.41,1.4
	c9.93-8.98,13.23-21.24,15.34-33.85c0.45-2.71-2.09-4.79-3.16-7.21c-8-18.06-7.65-36.08,0.21-54.07c2.21-5.05,5.92-8.86,10.48-11.76
	c5.51-3.51,11.89-3.11,15.65,0.68c4.14,4.18,5.08,14.11,1.76,18.65c-3.67,5.02-10.82,3.97-16.85-2.6c-5.03,2.72-5.97,7.7-6.53,12.6
	c-1.22,10.66,2.88,19.79,9.91,27.3c8.87,9.46,22.86,5.69,27.6-7.66c4.75-13.39,6.03-27.45,1.47-41.13
	c-11.99-35.98-23.01-72.25-33.23-108.76c-12.64-45.16-22.69-90.98-33.93-136.49c-3.75-15.17-7.36-30.38-11.05-45.57
	c-0.67-2.77-2.26-5.58,1.53-9.06c2.26,8.1,4.37,15.49,6.4,22.91c14.37,52.6,28.48,105.28,43.18,157.79
	c10.58,37.81,23.67,74.82,37.52,111.56c2.7,7.18,5.79,14.23,10.89,20.09c3.53,4.06,6.73,3.94,8.08-0.82
	c3.34-11.73,7.11-23.62,2.6-35.97c-25.03-68.49-45.76-138.26-63.26-209.04c-10.53-42.61-22.65-84.81-35.05-126.91
	c-1.04-3.53-3.82-7.2-0.36-12.08c1.91,2.3,2.41,4.68,3.11,7.02c15.99,53.52,31.16,107.28,46.19,161.09
	c12.09,43.28,26.79,85.7,43.66,127.36c1.07,2.63,1.54,5.6,4.67,7.81c1.94-3.61,1.24-7.39,2.17-10.77c1.33-4.81,2.68-9.6,5.24-13.96
	c4.83-8.22,10.07-10.43,18.98-7.77c1.55,0.46,2.92,1.68,5.1,0.76c-0.12-9.71-0.55-19.67,1.82-29.4c0.71-2.9,1.53-5.8,2.64-8.56
	c6.98-17.4,28.07-15.81,36.19-3.43c6.41,9.77,8.75,20.73,9.71,32.11c0.3,3.62-0.35,7.39,2.66,11.07
	c9.27-11.89,13.61-25.55,16.33-39.9c0.34-1.77-0.22-3.31-1.13-4.72c-6.54-10.12-10-21.51-13.48-34.13
	c-3.16,3.02-4.05,6.21-5.35,9.02c-5.13,11.15-14.75,11.2-23.43,7c-6.94-3.36-12.76-8.39-17.94-14.08
	c-14.48-15.92-23.21-34.75-27.71-55.63c-6.38-29.6-10.44-59.52-12.58-89.72c-0.72-10.24-1.99-20.45-3.03-30.67
	c-0.14-1.39,0.01-2.61,2.36-3.88c0.96,6.24,1.96,12.16,2.76,18.1c4.49,33.62,10.41,66.97,18.52,99.93
	c4.86,19.73,14.03,36.59,30.43,48.99c5.89,4.46,12.4,9.21,20.03,5.44c7.66-3.78,9.32-11.62,9.61-19.58
	c0.21-5.86-1.03-12.07,4.93-17.28c2.44,9.63,3.56,19.02,6.54,27.94c3.07,9.19,6.51,18.17,12.65,25.85c2.96,3.7,6.13,7.62,11.47,6.43
	c5-1.11,7.41-5.36,8.9-9.96c3.02-9.29,3.57-18.89,3.55-28.58c-0.01-3.47-1.89-5.17-4.23-7.28c-15.35-13.87-21.55-31.48-20.29-51.89
	c0.14-2.26,0.91-4.57,1.78-6.69c2.88-6.99,9.42-11.64,15.11-10.97c7.15,0.84,13.79,6.93,15.17,14.09c0.72,3.72,0.78,7.61-2.57,10.07
	c-3.54,2.61-7.55,2.3-11.21-0.1c-2.69-1.76-5.21-3.77-8.26-6.01c-4.17,7.26-2.51,13.58,1.37,19.16c5.99,8.63,13.81,15.3,23.97,18.77
	c7.35,2.51,11.79,0.75,14.19-6.37c3.58-10.61,3.49-21.59,2.24-32.61c-0.39-3.4-2.8-5.15-4.96-7.16
	c-16.7-15.56-23.55-34.95-22.31-57.45c0.47-8.61,5.58-14.49,12.22-14.47c6.42,0.02,16.11,8.82,16.71,15.18
	c0.61,6.46-5.86,11.33-11.82,8.75c-2.36-1.02-4.51-2.54-6.85-3.89c-3.32,4.06-2.7,8.27-1.38,12.48
	c3.68,11.76,11.08,20.36,22.29,25.49c7.8,3.56,14.87-0.04,16.39-8.49c0.95-5.26,0.54-10.58-1.02-15.81
	c-3.19-10.68-8.82-19.97-15.12-29.07c-8.86-12.77-15.17-26.61-14.06-42.76c0.06-0.93,0.47-1.84,1.21-4.63
	c12.64,22.73,25.32,43.76,43.89,61.92c4.53-6.79,2.87-13.51,2.56-19.69c-0.51-10.5-4.8-19.3-11.52-27.84
	c-29.01-36.86-59.35-72.69-86.97-110.62c-17.83-24.49-34.73-49.64-52.1-74.46c-17.57-25.09-36.25-49.34-55.38-73.25
	c-4.39-5.49-4.38-5.49-4.84-11.93c7.72,7.21,13.48,15.25,19.72,22.84c26.87,32.64,52.29,66.37,76.98,100.71
	c20.98,29.17,44.73,56.2,68.07,83.52c6.23,7.29,12.44,14.59,19.1,22.39c2-3.13,0.32-5.07-0.3-6.96c-2.41-7.41-2.87-15.02-2.48-22.71
	c0.62-12.13,9.55-20.29,21.73-19.85c9.08,0.32,16.72,4.34,23.25,10.28c16.36,14.9,24.47,32.85,19.24,55.31
	c-0.83,3.55-2.08,7-4.34,10c-4.32,5.72-11.02,6.63-16.45,2.11c-4.56-3.79-4.88-12.69-0.66-17.15c2.32-2.45,5.24-3.43,8.15-1.99
	c4.95,2.46,5.74-0.87,6.43-4.2c1.69-8.09-1.18-15.09-5.84-21.43c-7.06-9.6-16.59-14.11-28.55-12.89
	c-7.27,0.74-10.47,4.29-10.99,11.72c-0.4,5.74,1.09,11.19,2.21,16.75c2.79,13.94,8.53,25.97,17.88,37.11
	c22.32,26.61,41.17,55.63,54.89,87.72c8.71,20.37,13.89,41.72,14.67,63.77c0.39,11.14-1.06,22.61-6.99,32.77
	c-0.9,1.55-1.84,3.06-3.74,1.9c-1.58-0.96-1.61-2.46-0.66-4.26c8.6-16.32,4.94-33,0.7-49.42c-7.31-28.32-20.2-54.17-36.26-78.49
	c-5.43-8.22-10.99-16.35-16.49-24.53C2627.09,2006.17,2626.4,2006.53,2625.7,2006.88z M2172.38,2505.89
	c-4.44,0.95-5.44,3.18-6.98,4.85c-6.52,7.08-12.61,14.89-21.02,19.63c-7.01,3.95-10.5,9.49-12.82,16.71
	c-2.36,7.32-4.88,14.55-3.23,22.34c2.33,10.98,12.38,14.67,20.95,7.71c2.3-1.86,4.37-4.11,6.17-6.47
	C2169.93,2551.65,2171.59,2529.42,2172.38,2505.89z M2478.76,2291.06c5.37-6.89,9.6-13.77,15.22-19.21
	c9.86-9.56,9.53-20.43,6.29-32.22c-2.33-8.47-7.32-14.89-15.01-19.01c-6.05-3.24-10.94-2.7-14.26,2.1
	c-6.14,8.9-5.78,19.4-6.26,29.62c-0.03,0.56,0.55,1.19,0.95,1.71c7.16,9.31,10.06,20.05,10.81,31.58
	C2476.6,2287.13,2477.69,2288.56,2478.76,2291.06z M2124.89,2540.88c-12.93,2.64-22.97,7.81-32.54,13.53
	c-8.85,5.28-15.34,31.99-10.94,41.32c1.14,2.41,2.54,4.68,4.67,6.39c3.67,2.95,7.76,4.29,11.95,1.59
	c9.77-6.3,17.89-13.95,17.7-26.79c-0.1-7.1,1.13-13.88,3.47-20.5C2120.85,2551.75,2122.6,2547.13,2124.89,2540.88z M2446.74,2332.18
	c5.85-7.58,11.77-14.24,17.9-20.73c3.16-3.35,5.84-7.33,4.91-12.51c-2.12-11.75-6.63-22.21-16.16-29.94
	c-5.57-4.52-8.87-4.25-13.21,1.61c-6.56,8.84-7.8,18.86-5.35,29.36C2437.4,2310.97,2442.24,2321.14,2446.74,2332.18z
	 M1488.29,689.93c10.33,5.29,18.89,4.38,25.27-2.19c6.57-6.76,5.91-14.94-1.99-20.38c-8.58-5.9-18.14-6.18-27.71-3.21
	c-13.98,4.34-25.18,13.35-35.92,22.85c-14.18,12.53-24.24,28.23-33.07,44.73c-6.26,11.7-12.35,23.52-17.36,35.71
	c0.91,0.69,1.45,1.42,1.84,1.34c15.78-2.9,31.02-7.32,44.72-16.05c4.01-2.56,8.2-5.52,9.39-10c1.77-6.65,6.14-9.81,12.28-12.36
	c1.99,4.86-1.01,8.29-3.04,11.79c-8.16,14.07-21.4,22.52-34.76,30.71c-4.52,2.78-9.27,5.7-14.32,6.98
	c-9.27,2.35-13.39,8.86-16.77,16.84c-8.84,20.9-15.5,42.49-20.7,64.52c-7.27,30.77-17,60.83-25.69,91.19
	c-16.39,57.23-33.33,114.28-51.33,171.02c-0.96,3.01-0.59,6.81-5.91,8.52c25.45-94.17,48.67-188.08,75.96-281.64
	c-4.41,0.79-5.7,3.36-7.63,5.05c-1.75,1.53-3.12,3.58-5.03,4.84c-14.77,9.81-21.57,11.85-33.85-1.08c-2.83,0.49-3.08,3.21-4.06,5.12
	c-6.3,12.24-13.42,23.8-25.33,31.49c-2.18,1.41-3.13,3.03-2.85,5.75c2.33,22.41-8.23,39.96-22.05,55.87
	c-11.2,12.89-23.95,24.18-40.04,30.8c-8.65,3.56-17.5,5.52-27.17,3.66c-13.96-2.68-22.4-10.97-26.8-23.89
	c-6.9-20.28-3.49-40.06,3.73-59.44c5.14-13.8,12.65-26.38,22.79-39.17c-11.37,3.1-19.64,8.79-27.5,15.06
	c-10.27,8.18-18.93,17.69-23.64,30.32c-1.92,5.15-2.19,9.74-0.26,15.22c5.83,16.49,4.33,32.77-3.86,48.27
	c-3.16,5.98-7.37,11.22-13.82,13.88c-4.38,1.81-9.19,2.68-13.22-0.68c-4.56-3.81-5.28-9.13-3.91-14.63
	c1.26-5.08,5.21-7.52,10.44-7.4c5.99,0.14,5.72,4.32,5.83,8.41c0.02,0.65,0.28,1.29,0.43,1.94c8-3.21,13.1-9.99,12.66-18.83
	c-0.65-12.99-6.11-23.78-17.33-30.93c-6.11-3.9-10.05-3.42-13.56,2.52c-11.19,18.91-18.82,38.76-15.32,61.54
	c3.22,21.01,8.59,41.64,10.44,62.88c3,34.47,3.81,69.02,4.7,103.59c0.62,24.23,1.89,48.47,3.61,72.65
	c2.26,31.78,5.23,63.52,7.91,95.27c0.36,4.28,1.33,8.71-3.61,12.36c-1.36-10.18-2.96-19.89-3.91-29.65
	c-3.07-31.72-6.48-63.41-8.94-95.2c-1.66-21.54-2.43-43.11-3.97-64.63c-3.48-48.66-6.44-97.41-15.28-145.51
	c-2.16-11.75-5.18-23.35-7.75-35.03c-0.71-3.24-1.58-6.37-3.76-8.88c-3.58,0.15-4.58,2.85-5.91,5.03
	c-9.14,14.95-14.19,31.47-18.37,48.3c-0.54,2.18-0.42,4.69,0.03,6.92c7.24,35.84,11.86,72.09,16.85,108.27
	c3.08,22.35,4.87,44.89,6.97,67.37c2.56,27.42,4.98,54.86,7.13,82.31c0.41,5.23,1.67,10.81-1.58,16
	c-11.76-78.29-17.68-157.29-34.28-235.14c-3.08,1.47-3.42,4.66-4.73,7.04c-2.41,4.36-4.11,9.18-7.44,12.96
	c-4.91,5.59-10.22,10.66-18.67,9.16c-8.97-1.6-13.78-7.59-16.1-15.83c-2.26-8.04-3.37-16.27-2.6-24.66
	c0.6-6.52,1.3-13.02,2.12-21.21c-10.82,9.2-16.68,19.53-19.73,31.64c-0.53,2.1,0.44,3.87,1.22,5.72
	c15.81,37.95,25.78,77.55,33.43,117.82c7.01,36.88,14.67,73.65,20.38,110.77c0.96,6.22,1.47,12.51,2.03,18.78
	c0.16,1.78-0.97,3.08-2.96,3.82c-11.9-62.01-28.71-122.76-43.39-184.18c-4.35,0.84-5.01,3.78-6.78,5.47
	c-5.79,5.54-12.27,6.51-18.84,1.7c-6.16-4.5-11.78-9.73-17.68-14.59c-4.12-3.39-8.3-6.73-13.29-8.76c-5.15-2.1-8.77-0.75-10.13,4.28
	c-1.12,4.13-1.34,8.5-2,12.76c-0.48,3.04,1.13,4.79,3.32,6.65c15.34,12.97,20.64,43.67,9.16,64.54c-1.93,3.52-4.23,6.82-7.57,9.17
	c-5.86,4.13-11.77,2.45-14.45-4.16c-0.61-1.51-0.85-3.22-1.03-4.86c-0.74-6.9,0.93-11.78,4.78-13.05c6.4-2.1,7.32,4.17,10.74,7.61
	c5.15-4.62,6.9-11.05,6.07-16.89c-1.94-13.52-8.77-24.34-22.01-29.84c-6.29-2.62-8.7-1.48-11.79,4.91
	c-2.65,5.48-3.59,11.35-3.88,17.4c-0.87,17.91,1.99,35.17,9,51.67c2.93,6.89,4.31,13.95,3.62,21.41c-0.18,1.96-0.34,3.92-2.81,5.48
	c-8.14-21.28-22.26-38.75-32.76-58.31c-14.22-26.5-26.39-53.7-31.62-83.61c-3.65-20.88-2.53-41.62,1.15-62.33
	c3.62-20.39,9.58-40.09,17.96-59.03c3.38-7.64,7.49-14.9,12.77-21.38c3.08-3.79,6.32-7.64,12.44-8.61
	c-0.38,5.77-0.55,10.71-4.92,14.8c-19.84,18.58-26.54,43.02-30.83,68.73c-6.9,41.39,4.93,78.99,22.36,115.58
	c4.56,9.58,8.48,19.5,14.2,28.58c3.42-1.52,1.32-4.14,1.41-6.1c0.36-7.98,0.49-15.97,0.56-23.96c0.03-4.07,1.09-7.92,2.25-11.71
	c4.89-16.01,10.79-18.85,26.95-12.71c1.49-9.09,2.72-18.12,4.49-27.04c3.23-16.19,7.17-17.63,19.89-7.18
	c6.67,5.48,12.86,11.55,19.31,17.3c2.73,2.43,5.36,5.07,8.41,7.01c3.18,2.02,6.77,6.06,10.64,2.81c3.44-2.9,5.78-7.47,4.5-12.42
	c-2.99-11.61-6.55-23.05-12.33-33.65c-0.79-1.45-1.73-2.86-2.78-4.14c-4.58-5.53-8.55-5.54-12.95,0.13
	c-2.67,3.44-4.29,7.49-5.82,11.55c-1.01,2.68-1,5.89-4.11,7.88c-1.25-13.46,0.75-25.95,8.19-37.19
	c7.39-11.17,10.42-11.75,21.79-4.16c0.77-3.31,1.4-6.43,2.24-9.5c4.86-17.89,14.45-32.79,28.62-44.71
	c12.87-10.81,26.72-20.51,37.86-33.94c0.32,11.03-0.2,21.87,3.43,32.24c2.97-0.75,2.62-3.44,3.32-5.56
	c4.89-14.86,9.8-29.73,18.21-43.09c2.12-3.37,4.42-6.69,7.07-9.65c4.62-5.15,7.25-4.6,9.79,2.1c1.72,4.52,2.85,9.25,4.75,15.6
	c2.92-8.05,5.13-14.43,7.55-20.75c3.61-9.42,8.48-18.07,15.88-25.1c10.49-9.96,15.8-9.42,23.51-0.77c0.58,0.66,1.56,0.96,2.76,1.67
	c4.88-8.1,8.87-16.5,14.52-23.93c8.16-10.72,17.67-19.93,29.12-26.95c4.37-2.68,6.25-5.89,7.28-10.92
	c7.45-36.25,20.84-70.08,42.11-100.57c9.02-12.94,19.29-24.76,33.17-32.65c9.39-5.34,19.41-8.75,30.52-5.19
	c8.34,2.68,12.63,7.98,13.13,16.7c1.26,21.89-13.96,42.22-35.27,47.12c-4.63,1.06-9.28,1.05-13.84-0.3
	c-5.66-1.68-8.87-5.68-9.96-11.4c-1.93-10.21,6.06-24.77,15.72-28.77c0.31-0.13,0.6-0.28,0.91-0.4c7.36-2.64,14.12-0.29,15.94,5.53
	c1.81,5.77-3.04,13.43-9.75,15.3c-2.58,0.72-5.23,0.93-7.92,0.45c-1.31-0.24-2.75-0.22-3.27,1.31c-0.45,1.31,0.04,2.59,0.82,3.75
	c1.67,2.47,4.11,3.17,6.91,3.24c9.2,0.22,17.18-2.84,22.94-9.99c4.2-5.22,7.68-11.19,3.8-18.31c-3.65-6.71-12.66-10.72-20.52-9.23
	c-9.16,1.74-16.52,6.7-23.29,12.83c-10.01,9.06-17.52,20.07-24.19,31.61c-13.05,22.56-23.34,46.33-29.83,71.65
	c-0.65,2.54-1.53,5.09-0.95,7.9c2.45,1.41,4.47-0.38,6.33-1.21c16.13-7.24,32.95-12.43,49.81-17.59c5.05-1.54,10.03-3.67,14.65-6.23
	c4.36-2.42,8.6-5.73,8.85-11.31c0.35-7.85,6.49-11.72,10.57-17.24c3.04,7.61,0.74,14.21-3.06,20.38
	c-11.95,19.38-29.39,32.33-51.18,37.13c-15.11,3.33-24.72,12.43-33.63,23.09c-14.62,17.48-22.4,37.67-20.49,60.85
	c1.93,23.48,18.55,39.98,45.11,32.2c18.67-5.47,34.8-16.77,46.38-33.09c7.35-10.35,11.36-21.8,8.02-34.9
	c-3.61-0.83-6.45,1.3-9.57,2.09c-7.25,1.83-14.42,2.51-21.4-1.07c-10.35-5.3-11.25-19.75-1.61-26.34
	c11.29-7.72,28.37-5.04,36.28,6.64c3.11,4.59,4.77,4.33,8.2,1.21c9.3-8.45,16.34-18.57,20.76-30.2
	c5.76-15.15,10.71-30.61,16.8-48.24c-23.47,10.26-38.88,26.32-52.48,47.03c-0.69-8.46,2.3-13.66,5.2-18.81
	c8.74-15.45,21.79-26.77,36.09-36.72c9.02-6.28,18.54-11.82,28.63-16.22c4.71-2.05,7.09-5.22,8.69-10.02
	c4.93-14.83,10.14-29.58,15.62-44.22c9.07-24.24,24.9-42.98,46.92-56.52c8.45-5.2,17.58-8.07,27.51-7.03
	c3.99,0.42,7.03-0.56,10.04-2.92c6.32-4.96,13.4-8.65,20.62-12.1c10.49-5.01,21.5-6.9,33.01-5.38
	c17.67,2.34,25.88,15.61,20.24,32.47c-6.8,20.32-30.18,31.28-49.16,23.05c-13.04-5.66-15.07-16.78-4.92-26.89
	c4.44-4.42,9.67-7.16,16.03-6.74c3.72,0.24,7.56,1.38,8.94,5.31c1.39,3.96,0.57,7.73-2.54,11.03
	C1496.59,686.5,1492.53,687.9,1488.29,689.93z M1364.38,776.46c14.32-0.56,23.13-4.86,28.23-18.35
	c8.32-22.02,20.01-42.6,33.34-62.12c2.5-3.66,5.11-7.24,7.88-11.15c-5.71-2.91-9.95-0.45-14.04,1.33
	c-9.65,4.2-17.07,11.25-23.74,19.23C1378.92,725.86,1372.74,751.11,1364.38,776.46z M1036.63,996.24
	c-6.52,5.82-11.47,11.23-17.36,15.27c-8.21,5.63-11.37,13.47-12.06,22.68c-0.74,9.92-1.33,19.94,5.16,28.61
	c7.44,9.95,15.31,10.21,22.25,0.05c6.6-9.67,11.27-19.95,8.24-32.47C1040.24,1019.58,1038.81,1008.49,1036.63,996.24z
	 M1387.25,789.69c-13.5,3.09-25.52,5.01-36.88,9.63c-1.79,0.73-3.8,1.76-4.89,3.25c-6.12,8.45-10.7,17.72-11.16,28.28
	c-0.32,7.17,3.46,12.64,9.77,16.18c6.31,3.55,11.71,0.71,16.44-3.08c5.69-4.56,11.34-9.56,13.94-16.6
	C1378.82,815.58,1382.58,803.59,1387.25,789.69z M1277.21,895.22c-5.74-8.71-14.1-12.18-22.2-9.5c-1.53,0.51-3.2,1.27-3.8,2.95
	c-0.83,2.37,1.04,3.73,2.51,4.89C1261.13,899.42,1268.94,898.02,1277.21,895.22z M2355.92,871.1c-1.19-4.28-5.4-4.63-8.48-6.01
	c-17.93-8.05-36.58-10.41-56.3-8.83c-21.71,1.74-42.71,6.03-63.38,12.51c-1.55,0.48-3.36,0.42-4.37,3.12
	c7.66,4.59,11.35,11.27,7.18,20.86c9.47,0.77,18.38,1.24,27.04,3.8c4.56,1.35,8.8,3.11,12.6,5.82c10.99,7.82,11.02,22.65,0,30.34
	c-6.96,4.86-14.94,7.18-23.3,8.21c-6.92,0.85-13.84,1.72-20.77,2.37c-3.27,0.31-6.34,1.09-10.08,2.55
	c10.53,12.65,23.47,19.87,39.03,22.7c3.83,0.7,6.18-1.18,8.31-4.13c13.72-18.91,52.2-23.49,72.42-10.68
	c7.78,4.93,13.19,11.11,12.49,21.09c-0.34,4.83-2.51,8.4-6.96,9.99c-5.11,1.83-10.44,2.38-15.08-1.37
	c-3.43-2.77-3.75-10.64-0.52-14.71c1.4-1.77,3.5-2.99,5.29-4.47c-6.41-8.95-16.58-12.29-27.58-8.97
	c-11.1,3.36-19.11,12.69-19.79,22.69c-0.45,6.68,1.88,11.85,7.81,14.94c12.41,6.45,25.52,9.49,39.46,6.59
	c27.97-5.82,55.82-12.6,84.24-15.49c34.67-3.53,68.32,1.34,99.76,17.36c4.42,2.25,8.48,5.27,12.5,8.21
	c2.38,1.74,4.37,4.01,6.47,5.99c-1.58,2.91-3.61,3.78-5.85,1.79c-20.94-18.6-46.85-22.97-73.27-24.5
	c-28.78-1.67-56.92,3.67-84.66,11.04c-0.57,0.15-1.01,0.82-2.1,1.74c9.9,3.84,19.49,7.5,29.03,11.29c5.6,2.23,10.83,5.25,15.35,9.21
	c5.65,4.96,4.87,8.47-1.87,11.92c-2.25,1.15-5.53,0.41-6.93,3.76c5.72,2.44,11.49,4.67,17.07,7.32c16.87,8,30.68,19.72,41.78,34.75
	c9.49,12.85,19.21,25.53,28.76,38.33c0.93,1.25,2.26,2.5,1.58,5.15c-4.63,0-9.46,0-14.29,0c-0.13,4.05,2.94,4.05,4.74,4.99
	c8.27,4.32,16.46,8.8,23.76,14.63c10.06,8.03,10.22,11.17,1.38,21.32c3.11,3.46,7.54,4.98,11.32,7.39
	c9.63,6.16,18.51,13.1,23.64,23.7c6.87,14.19,1.54,19.27-9.04,21.6c-1.1,0.24-2.64-0.15-3.42,2.27c5.26,2.98,10.7,5.97,16.04,9.12
	c8.3,4.9,16.87,9.47,23.52,16.68c6.01,6.51,4.88,11.03-3.46,14c-2.49,0.89-5,1.67-7.75,1.68c-2.18,0.01-4.52-0.07-7.2,1.89
	c5.63,3.39,10.9,6.64,16.25,9.75c8.71,5.07,16.39,11.39,23.18,18.79c4.57,4.98,8.19,10.53,8.69,17.54
	c0.7,9.77-3.71,15.07-13.54,15.85c-8.7,0.69-17.25-0.5-25.6-3.05c-7.21-2.2-14.44-4.37-22.97-6.96
	c4.27,15.54,15.11,24.22,27.12,34.42c-13.72-2.38-22.2-9.5-29.87-17.75c-8.47-9.11-14.7-19.72-19.25-31.28
	c-4.43-11.25-10.74-21.37-17.99-30.98c-2.55-3.38-4.99-4.78-9.81-4.62c-19.97,0.64-40.03,1.24-59.95,0.1
	c-43.39-2.47-86.87-4.58-129.59-13.6c-5.64-1.19-5.65-1.11-9.98-5.07c1.35-1.46,3.01-0.92,4.55-0.58c21.8,4.71,43.9,6.73,66.12,8.32
	c28.93,2.06,57.86,2.2,86.78,1.65c31.18-0.59,62.45-1.17,93.17-7.84c4.18-0.91,10.23-0.71,11.14-4.94c0.97-4.48-4.91-6.31-8.43-8.57
	c-8.45-5.43-17.84-8.85-27.04-12.71c-4.27-1.79-8.39-0.55-12.61-0.61c-20.61-0.32-41.2,0.44-61.85-0.84
	c-36.24-2.25-71.82-8.76-107.52-14.5c-15.08-2.43-30.06-5.59-44.77-9.83c-2.2-0.63-4.78-0.59-5.37-5.02
	c59.2,12.74,118.61,19.93,178.93,18.18c0.95-4.07-2.57-5.42-4.03-7.75c-7.26-11.61-5.74-20.43,5.4-28.38
	c5.42-3.87,11.03-7.47,16.45-11.33c2.97-2.12,5.95-4.31,8.51-6.88c4.49-4.5,4.29-7.36-0.42-11.65c-1.22-1.11-2.7-1.94-4.08-2.86
	c-21.7-14.54-27.32-15.59-53.11-12.22c-18.09,2.36-36.26,4.12-54.42,5.86c-20.14,1.93-40.3,3.64-60.46,5.25
	c-6.96,0.56-13.96,0.58-20.95,0.77c-32.22,0.88-64.37,3.16-96.58,4.29c-18.93,0.66-37.86,1.25-56.79,1.97
	c-7.93,0.3-15.88,1.11-23.85,1.1c-3.31-0.01-6.67,0.08-8.83-4.75c100.5-2.59,199.98-11.84,300.54-22.68
	c-3.6-4.72-8.23-5.81-11.86-8.22c-6.94-4.61-13.97-9-18.84-16.06c-9.56-13.85-3.75-28.63,12.84-31.51
	c9.54-1.65,19.23-1.25,28.78,0.77c2.56,0.54,5.13,1.45,7.83,0.54c0.9-3.27-2.11-3.8-3.71-5.01c-4.5-3.41-9.09-6.75-13.89-9.72
	c-12-7.42-24.33-11.83-38.5-5.27c-4.72,2.19-10.27,2.65-15.47,3.74c-14.03,2.94-33.03-1.1-44.05-13.05
	c22.38,4.73,42.86-0.04,63.02-6.64c4.53-1.48,11.68-2.2,12.02-7.35c0.39-5.89-6.77-7.07-11.44-9.32c-14-6.77-27.58-7.69-43.07-2.67
	c-45.52,14.76-91.47,28.17-137.65,40.81c-35.6,9.75-71.85,16.78-107.51,26.25c-3.44,0.91-7.03,1.62-12.18-2.1
	c39.76-9.97,77.98-18.83,115.03-31.86c37.3-13.12,74.87-25.45,112.66-38.24c-2.41-2.5-5.3-2.74-8.02-3.41
	c-7.11-1.75-13.96-4.15-20.62-7.32c-8.38-4-14.23-9.9-15.96-19.09c-0.69-3.65-2.24-4.69-5.71-5.37c-23.75-4.65-44.18-16-62.68-31.35
	c-23.45-19.46-48.74-35.95-77.69-46.16c-5.91-2.08-12.07-3.45-18.23-5.74c18.93-4.07,36.27-12.17,53.79-19.75
	c6.12-2.65,12.13-5.65,16.77-10.6c3.63-3.86,3.1-5.9-1.78-8.18c-3.98-1.86-8.23-2.56-12.6-2.67c-1.99-0.05-4.01-0.06-5.96-0.39
	c-2.24-0.38-4.42-1.1-6.63-1.67c-0.31-2.32,1.24-3.38,2.66-3.48c12.98-0.96,25.93-0.97,38.46,3.31c2.19,0.75,4.32,1.82,6.27,3.07
	c5.37,3.46,5.65,6.66,1.06,11.15c-1.62,1.59-4.04,2.33-4.88,4.36c21.06,3.28,40.53-4.76,60.61-8.84c24.11-4.9,48.29-10,73.02-8.64
	c20.7,1.13,40.84,5.55,58.95,16.43c8.04,4.83,13.45,11.86,15.58,21.1c3.11,13.5-2.51,23.59-15.59,28.32
	c-18.9,6.83-40.59-2.26-47.61-19.96c-4.98-12.57,1.36-22.65,14.86-24.1c5.12-0.55,9.77,1.73,14.74,1.62
	c0.51,3.32,3.74,5.19,4.18,8.77c0.96,7.9-1.56,11.22-9.46,11.66c-3.59,0.2-6.98-1.03-10.72-1.82c2.27,8.58,4.06,11.28,9.07,14.2
	c10.3,6,20.35,0.58,21.12-11.38C2370.85,883.07,2365.87,875.68,2355.92,871.1z M2466.68,1116.23c-3.8-9.56-9.92-15.8-14.37-23.07
	c-5.91-9.66-15.1-13.46-25.34-15.75c-5.56-1.24-11.3-1.2-16.88-0.53c-11.44,1.36-19.97,13.91-14.63,22.02
	c7.88,11.97,20.3,19.29,33.73,20.98C2440.94,1121.36,2453.32,1117.74,2466.68,1116.23z M2127.51,891.56
	c12.11,2.95,23.07,6.4,32.03,12.84c10.61,7.62,20.31,5.49,30.65,1.21c3.67-1.52,7.34-3.22,10.65-5.4c5.01-3.31,10.17-6.93,9.19-14.1
	c-0.74-5.4-7.48-10.27-15.02-11.27c-1.64-0.22-3.32-0.09-4.97-0.18c-16.99-0.94-32.76,4.21-48.4,9.88
	C2137.18,886.15,2132.31,887.15,2127.51,891.56z M2211.28,938.62c7.47,0.15,28.29-5.68,36.21-10.03c2.67-1.46,5.03-3.24,7-5.53
	c4.24-4.94,4.27-9.17,0.18-14.32c-5.89-7.42-25.43-11.65-33.2-6.16c-10.42,7.36-22.12,10.36-34.25,12.64
	c-1.52,0.29-3.65-0.4-4.3,1.65c-0.63,2,1.31,2.83,2.51,3.8c6.2,5.01,12.48,9.92,18.69,14.92
	C2206.24,937.29,2208.42,938.71,2211.28,938.62z M2510.11,1267.26c0.75,2.22,0.78,3,1.18,3.4c10.15,9.85,18.13,21.13,22.86,34.57
	c0.58,1.64,1.55,3.01,3.21,3.58c13.2,4.54,26.5,6.28,39.7,0.25c4.9-2.24,5.55-4.88,3.12-9.63c-0.9-1.76-2.08-3.42-3.36-4.92
	C2559.45,1274.32,2536.24,1268.55,2510.11,1267.26z M2491.33,1211.36c2.91-0.2,6.57-0.22,10.16-0.76c6.19-0.93,12.5-1.68,18.1-4.73
	c6.56-3.57,7.58-7.12,4.13-13.77c-4.96-9.57-14.06-13.53-23.45-17.03c-1.59-0.59-3.36-0.4-4.8,0.51c-8.37,5.3-17.23,9.95-24.4,16.92
	c-5.79,5.63-5.24,9.34,0.73,14.86C2477.41,1212.55,2484.12,1211.1,2491.33,1211.36z M1805.83,2752.07
	c-10.37-5.41-19.54-4.26-25.14,2.48c-5.61,6.75-5.04,13.52,1.86,19.07c7.62,6.13,16.37,7.05,25.51,4.53
	c8.41-2.31,16.23-6.12,23.17-11.38c27.06-20.48,47.18-46.62,62.16-76.9c0.27-0.54,0.14-1.27,0.2-1.96c-1.13-1.67-2.92-1.36-4.4-1.06
	c-18.46,3.75-37.14,2.39-55.75,2.39c-16.16,0-31.62,2.29-46.44,9.29c-14.97,7.07-30.97,10.04-47.55,8.2
	c-6.44-0.72-10.3,1.32-13.71,7.01c-11.49,19.2-25.14,36.83-41.24,52.41c-9.86,9.54-20.67,17.67-34.42,21.2
	c-9.32,2.4-18.21,1.39-25.75-3.94c-5.9-4.17-10.43-3.35-16.28-0.66c-11.88,5.46-24.36,8.66-37.67,7.99
	c-6.18-0.31-11.72-2.06-16.93-5.21c-8.32-5.02-11.73-12.59-10.66-22c2.77-24.31,29.61-39.39,50.1-33.82
	c10.9,2.96,17.14,10.25,17.82,18.98c1.01,12.91-14.25,24.37-29.15,19.87c-7.24-2.19-8.51-10.66-3.02-16.06
	c4.52-4.44,10.59-5.36,18.99-2.88c-3.83-8.51-12.22-12.21-21.71-9.56c-9.66,2.69-14.44,8.62-13.81,16.85
	c0.39,5.05,3.08,8.56,6.84,11.65c10.36,8.51,22.32,7.92,34.24,5.56c11.55-2.29,21.83-8,31.52-14.55
	c19.71-13.34,36.87-29.46,51.41-48.32c1.22-1.58,2.44-3.17,3.45-4.89c1.53-2.62,0.95-4.5-2.31-4.89c-18.51-2.19-37.04-4-55.52,0.05
	c-4.52,0.99-9.21,2.25-12.78,5.38c-4.64,4.07-10.03,4.56-16.86,4.96c4.3-6.25,10.02-9.05,15.33-12
	c15.36-8.54,31.87-13.46,49.57-13.05c6.05,0.14,9.4-1.89,12.63-7.12c20.83-33.7,39.65-68.54,59.06-103.04
	c31.86-56.61,67.37-110.94,103.59-164.81c2.77-4.13,2.82-4.1,9.86-7.52c-25.21,40.63-50.84,78.79-72.92,119.12
	c-22.19,40.53-44.19,81.15-65.63,122.55c3.74,1.81,5.52-0.75,7.45-2.04c9.2-6.15,18.87-11.22,29.8-13.53
	c2.91-0.62,5.85-1.31,8.81-1.49c11.86-0.7,17.09,3.15,20.23,14.63c0.34,1.25,0.46,2.56,0.67,3.82c3.04,0.02,4.19-2.28,5.73-3.85
	c10.55-10.75,22.16-20.15,35.14-27.77c2.76-1.62,5.2-2.91,4.37-6.75c-2.09-9.76,1.09-18.53,6.36-26.3
	c17.76-26.19,42.63-38.61,74.22-35.47c28.96,2.88,45.67,27.58,38.7,55.82c-3.77,15.29-12.19,27.99-22.77,39.28
	c-7.51,8.01-15.29,15.77-24.08,22.45c-1.93,1.46-4.8,2.47-5.17,6.03c8.01,0.93,15.06-2.17,22.09-4.67
	c13.05-4.65,23.77-13.14,34.33-21.83c4.18-3.45,3.61-8.48,4.29-12.84c2.3-14.6,8.51-27.19,17.99-38.33
	c3.72-4.37,8.1-7.84,13.32-10.31c3.12-1.48,6.31-2.02,9.68-1.63c6.52,0.74,10.6,4.29,11.03,9.56c0.4,4.86-3.88,12.36-8.18,13.87
	c-3.67,1.29-7.17,0.97-10.15-2c-1.63-1.62-2.11-4.2-4.88-5.37c-6.52,3.92-9.52,10.55-11.74,17.51c-2.23,6.98-3.68,14.18-2.42,21.62
	c1.78,10.55,8.6,14.16,18.09,9.06c9.53-5.13,17.01-12.71,23.08-21.61c9.88-14.49,16.71-30.52,19.85-47.6
	c11.7-63.49,28.09-125.86,43.61-188.46c8.96-36.13,16.64-72.54,23.19-109.19c0.45-2.52,0.15-5.47,4.07-6.88
	c1.07,3.6-0.1,7.06-0.7,10.25c-14.08,74.79-29.17,149.37-46.4,223.5c-7.83,33.7-12.85,67.85-16.5,102.21
	c-0.45,4.25-0.24,8.68,0.4,12.92c0.62,4.04,3.03,4.77,6.42,2.23c4.58-3.43,7.91-8.03,11.16-12.7c1.83-2.63,3.24-6.15,8.18-4.83
	c0.82,2.47-0.29,4.88-1.66,6.87c-7,10.16-14.57,19.86-23.95,27.97c-1.75,1.51-3.69,2.92-5.75,3.93c-5.51,2.7-8.95,0.75-9.48-5.55
	c-0.35-4.22-0.07-8.49-0.07-14.9c-5.3,6.72-9.28,11.84-13.34,16.9c-6.98,8.68-15.33,15.66-25.53,20.31
	c-1.21,0.55-2.4,1.16-3.64,1.63c-13.7,5.23-19.34,2.87-26.15-11.1c-0.83,0.24-1.9,0.26-2.54,0.79
	c-13.16,10.79-27.06,20.5-42.14,28.38c-3.34,1.75-4.56,4.65-6.13,7.53c-11.97,21.98-25.46,42.96-42.02,61.78
	c-13.71,15.59-28.86,29.55-48.28,37.95c-11.91,5.15-24.06,7.87-36.77,3.03c-10.42-3.97-16.15-12.79-14.35-22.33
	c1.66-8.78,5.77-16.44,12.85-21.91c11.51-8.9,24.54-11.42,38.53-7.03c9.65,3.03,13.09,10.84,9.55,20.46
	c-4.04,10.98-12.11,16.65-21.71,15.25c-8.4-1.23-11.37-8.61-6.2-15.4C1796.86,2756.11,1801.2,2754.29,1805.83,2752.07z
	 M1753.91,2692.43c4.45,1.03,7.11,2.39,9.55,2.08c12.75-1.59,26.14-0.84,37.42-8.62c17.58-12.12,37.76-14.17,58.11-14.32
	c10.92-0.08,20.11-3.69,29.08-9c7.48-4.43,14.41-9.71,20.49-15.83c10.13-10.19,19.36-21.11,22.76-35.69
	c2.91-12.5,1.15-23.99-8.06-33.36c-9.87-10.05-22.74-14.18-36.26-14.05c-14.29,0.14-27.18,6.09-38.48,14.81
	c-6.74,5.19-11.56,11.87-13.17,20.56c-1.24,6.72-0.53,7.69,6.05,6.34c4.64-0.95,9.31-1,13.92-0.43c8.67,1.07,14.79,7.67,15.21,15.83
	c0.43,8.26-4.03,16.58-11.03,19.67c-7.74,3.42-14.93,1.45-21.49-3.29c-5.6-4.04-8.31-10.14-10.87-17.26
	C1796.01,2637.21,1776.66,2665.26,1753.91,2692.43z M1690.48,2686.86c15.52,2.09,30.28,4.04,45.03,6.11
	c2.54,0.36,4.46-0.29,6.31-2.03c7.13-6.68,13.15-14.12,16.69-23.36c2.6-6.77,2.24-13.2-2.96-18.56c-5.05-5.2-11.3-6.99-18.2-4.12
	C1717.14,2653.31,1700.61,2665.87,1690.48,2686.86z M1636.46,2767.38c8.7,7.07,17.09,7.46,25.9,3.18
	c6.29-3.05,12.02-6.94,17.37-11.47c16.39-13.87,28.45-31.34,40.72-48.64c0.96-1.35,1.85-2.8,0.52-4.82
	c-2.71-0.17-5.73-0.01-8.58-0.61c-8.03-1.68-13.43,1.04-18.6,7.63C1677.61,2733.29,1659.7,2752.33,1636.46,2767.38z
	 M1838.04,2615.57c2.62,8.33,7.34,13.12,14.36,15.35c3.14,1,6.9,1.15,8.92-2.38c1.79-3.13-0.31-5.71-2.22-8.05
	C1853.68,2613.86,1846.57,2614.03,1838.04,2615.57z M1954.35,651.11c-3.46,3.22-6.95,5.44-11.57,3.9
	c-12.14-4.03-23.71-1.28-34.98,3.1c-18.77,7.29-35.38,18.31-51.25,30.56c-17.96,13.86-34.39,29.38-50.14,45.66
	c-0.86,0.89-2.05,1.67-1.4,3.75c7.85-2.35,15.26-6.04,23.34-7.76c5.01-1.06,9.94-1.18,14.86-0.82c6.88,0.49,8.73,4.03,5.63,10.06
	c-1.48,2.88-3.41,5.52-5.87,9.42c7.64-2.55,14.18-4.59,20.62-6.92c8.3-2.99,16.84-3.83,25.55-3.32c6.13,0.36,11.57,2.91,12.63,9.27
	c1.05,6.29,4.61,5.5,8.64,4.72c8.2-1.58,16.46-2.22,24.79-2.06c4.67,0.09,9.27,0.55,13.73,2.11c9.45,3.31,11.8,8.26,8.22,17.73
	c-0.7,1.85-1.67,3.59-2.56,5.47c12.78,1.27,30.87-3.44,40.26-10.12c21.99-15.63,43.99-31.45,69.57-40.71
	c22.16-8.02,45.12-11.22,68.56-6c9.72,2.16,18.59,6.47,22.8,16.12c8.35,19.09-3.13,34.46-21.46,37.58
	c-5.5,0.94-11.38,0.87-16.92,0.09c-11.17-1.57-18.81-7.79-21.83-19.07c-2.31-8.61,0.12-14.89,7.61-19.57
	c6.66-4.16,13.88-4.5,21.2-2.85c5.92,1.33,8.6,5.43,7.92,10.9c-0.59,4.73-3.97,7.5-9.77,8.27c-5.2,0.69-9.61-1.84-14.27-3.53
	c-0.69,7.26,2.59,12.82,9.48,16.38c6.4,3.31,14.71,2.35,19.54-2.26c4.77-4.55,5.93-10.73,3.35-17.41c-3.55-9.2-10.63-14-19.78-16.62
	c-11.27-3.22-22.59-2.34-33.51,0.48c-29.28,7.56-56.19,20.41-80.59,38.38c-1.02,0.75-1.75,1.89-2.3,2.49
	c-0.27,2.15,1.02,1.95,1.88,2.09c14.11,2.26,14.7,3.59,6.58,14.83c-0.75,1.04-1.96,1.85-1.73,3.78c5.04,0.13,9.58-2.27,14.37-3.25
	c8.27-1.69,16.58-1.98,24.81-0.79c15.56,2.25,22.49,15.68,15.59,29.61c-9.29,18.76-40.58,39.28-67.38,32.33
	c-11.47-2.97-15.93-11.91-9.85-20.7c2.94-4.24,9.09-6.7,14.08-5.63c7.87,1.68,9.32,9.61,3.19,17.68c2.75,2.79,5.82,2.19,9.22,1.33
	c15.21-3.83,24.87-13.8,30.07-28.01c4.48-12.26-1.93-19.35-14.98-17.44c-17.77,2.61-34.15,8.29-47.55,20.94
	c-6.11,5.77-13.51,9.67-21.11,13.12c-4.91,2.23-10.01,3.54-16.14,2.41c1.39-3.25,4.22-4.23,6.53-5.68
	c12.26-7.65,22.78-17.26,32.05-28.29c1.28-1.52,2.43-3.17,3.49-4.86c1.59-2.53,3.7-5.19,2.46-8.29c-1.47-3.68-5.13-2.3-7.92-2.37
	c-12.38-0.33-24.43,2.14-36.44,4.7c-2.27,0.48-4.41,1.29-6.28,2.86c-7.37,6.19-15.29,11.6-25.68,16.53
	c11.94,5.52,22.81,6.09,33.97,6c-8.83,5.84-18.99,6.43-28.93,7.08c-19.15,1.26-37.68-2.63-55.92-8.12
	c-15.96-4.8-32.34-8.18-48.89-8.67c-11.35-0.34-22.47,1.6-31.24,11.84c-22.04,25.75-45.13,50.62-67.89,75.76
	c-10.04,11.1-19.98,22.31-30.5,32.94c-31.17,31.5-62.58,62.76-93.96,94.05c-2.69,2.68-4.82,6.52-10.67,6.31
	c1.5-3.96,4.45-5.97,6.79-8.29c30.93-30.73,60.87-62.44,89.74-95.09c30.83-34.86,60.68-70.57,90.93-105.94
	c14.91-17.43,29.8-34.88,44.57-52.43c4.43-5.27,8.96-10.59,11.36-19.37c-16.04,2.9-30.36,6.82-40.69,18.14
	c-26.44,28.97-51.86,58.88-78.35,87.8c-21.37,23.33-45.1,44.28-69.04,64.95c-12.83,11.08-25.68,22.14-38.72,32.97
	c-3.08,2.56-5.73,6.72-12.62,5.21c54.86-50.6,110.86-98.54,152.76-160.09c-3.04-2.36-5.38-0.18-7.52,0.55
	c-5.14,1.74-10.32,2.23-15.7,2.34c-9.37,0.2-16.06-3.44-19.62-12.32c-0.61-1.51-1.35-2.97-2.08-4.58c-5.7,2.1-9.81,6.17-14.66,9
	c-7.5,4.39-15.07,8.43-23.66,10.36c-6.88,1.55-13.48,1.45-18.38-4.19c-4.99-5.75-5.38-12.63-2.89-19.73
	c2.94-8.36,8.18-15.22,14.35-21.36c5.59-5.56,11.49-10.81,18.34-17.2c-16.07-1.49-29.56,3.88-43.12,8.4
	c-13.78,4.59-26.59,11.62-41.97,18.26c3.23-5.24,6.55-7.12,9.5-9.33c25.49-19.06,54.63-28.23,85.87-31.99
	c31.14-3.75,61.57,0.78,91.93,6.93c4.21,0.85,8.53,1.49,12.81,1.62c9.03,0.27,16.51-1.18,23.49-9.16
	c31.4-35.92,71.45-57.94,117.41-69.74c8.24-2.11,16.51-1.62,24.8-1.55C1948.71,646.83,1951.76,647.92,1954.35,651.11z
	 M1803.8,793.35c16.3-3.8,31.27-2.61,46.19-2.47c1.63,0.02,3.59,0.35,4.85-0.4c10.36-6.17,20.22-13.1,26.2-23.93
	c3.59-6.5,1.07-12.59-5.7-15.56c-3.04-1.33-6.11-1.79-9.65-1.08C1839.41,755.12,1819.96,770.04,1803.8,793.35z M1781.04,739.2
	c-0.34-0.7-0.67-1.39-1.01-2.09c-14.21,0-28.41,0.02-42.62-0.03c-1.66-0.01-3.35-0.36-4.8,0.67c-8.41,5.99-16.7,12.13-20.87,22.09
	c-2.97,7.08-0.86,13.05,5.73,16.96c4.87,2.89,10.14,3.34,15.37,1.69c4.71-1.49,9.4-3.32,13.74-5.66
	C1761.32,764.89,1768.99,749.87,1781.04,739.2z M1717.48,735.91c-11.73-0.94-23.44-1.9-35.16-2.79c-0.94-0.07-2.07,0.12-2.87,0.6
	c-10.91,6.51-21.32,13.72-27.63,25.13c-5.14,9.3,0.29,21,10.25,20.89c12.32-0.13,24.07-5.21,30.71-15.44
	c5.73-8.84,11.7-16.68,20.19-22.76C1714.68,740.32,1717.24,739.52,1717.48,735.91z M1867.1,794.22c10.94,3.77,22.18,6.02,33.3,8.64
	c1.52,0.36,3.57,0.39,4.82-0.36c11.47-6.85,22.4-14.5,29.04-26.51c3.97-7.17,1.16-12.76-6.63-15.39
	c-8.18-2.75-15.62,0.82-23.23,2.67c-2.48,0.6-4.7,1.91-6.39,4.35c-5.98,8.62-14.31,14.6-23.21,19.94
	C1872.11,789.19,1868.5,789.96,1867.1,794.22z M723.17,1642c-2.16,5.82-0.21,10.99,2.86,15.95c6.1,9.83,22.8,17.13,33.96,14.89
	c10.61-2.13,15.25-8.5,11.94-18.78c-4.49-13.96-10.57-26.87-23.25-36.16c-23.69-17.35-45.01-37.55-63.57-60.27
	c-19.11-23.39-34.11-49.21-39.23-79.71c-1.78-10.63-2.01-21.12,1.77-31.82c3.96,0.49,5.05,3.15,4.31,6.25
	c-5.44,22.67,1.56,42.85,12.75,61.91c17.6,29.97,42.5,53.4,69.02,76.18c1.22-4.86-1.52-7.78-2.69-11.07
	c-2.8-7.86-5.2-15.85-5.91-24.15c-0.83-9.61,2.09-11.76,11.65-9.44c0.9,0.22,1.81,0.43,3.7,0.88c-1.49-8.6-5.28-16.01-6.31-24.09
	c-0.38-2.95-1.12-5.83-1.17-8.86c-0.19-14.08,2.61-17.47,16.6-19.74c1.8-2.35-0.1-4.3-0.8-6.36c-2.79-8.2-5.43-16.47-5.72-25.19
	c-0.5-15,7.16-22.11,22.16-20.93c1.28,0.1,2.55,0.42,4.49,0.76c0.67-8.63-2.64-16.42-3.72-24.45c-1.03-7.62-1.76-15.18-1.65-22.84
	c0.22-15.38,5.38-20.41,20.48-20.07c0.94,0.02,1.88-0.19,3.08-0.33c1.41-5.13-0.86-9.89-1.05-14.75
	c-1.19-29.52,8.03-56.38,20.4-82.46c7.14-15.06,15.94-29.22,24.89-43.25c10.17-15.95,21.83-31,28.56-50.06
	c3.47,3.93,3.55,7.7,3.61,11.44c0.18,11.14,3.17,21.51,7.59,31.72c32.98,76.34,63.58,153.69,97.52,229.62
	c14.66,32.81,29.94,65.34,45.93,97.54c2.36,4.74,6.4,9.34,4.5,15.76c-7.14-7.61-44.8-84.69-70.15-142.14
	c-21.3-48.26-41.63-96.98-65.67-145.04c-2.82,4.88-2.77,8.84-3.33,12.72c-2.2,15.13-8.13,20.64-23.82,22.16
	c-1.5,3.75-0.38,7.9,0.36,11.49c1.38,6.73,0.83,13.16-0.28,19.74c-1.54,9.15-5.01,16.47-15.18,18.69
	c-9.86,2.16-17.55-1.19-23.84-8.61c-7.1-8.38-10.09-18.6-12.96-28.89c-0.68-2.43,0.25-5.49-2.97-7.54
	c-2.57,3.12-2.87,7.04-3.89,10.66c-3.65,12.87-5.62,25.95-5.18,39.37c0.14,4.15,0.74,8.03,3.92,10.92
	c6.24,5.68,10.35,12.94,14.73,20.12c4.17-1.64,3.47-5.73,4.52-8.47c5.33-13.84,16.4-15.66,28.55-9.92
	c9.39,4.44,16.94,11.61,23.92,19.33c15.99,17.69,27.84,38.09,39.11,58.91c18.87,34.86,35.1,71,52.29,106.68
	c1.13,2.35,4.03,5.11-0.55,8.27c-4.67-7.62-7.78-15.94-11.95-23.65c-15.02-27.82-29.38-55.99-44.17-83.94
	c-10.79-20.4-23.36-39.54-40.48-55.35c-4.69-4.33-9.6-8.28-15.47-10.78c-15.53-6.62-25.99,0.78-25,17.52
	c0.3,5.03,1.61,9.86,3.2,14.57c0.99,2.91,1.78,5.53-0.19,8.23c-3.44-0.3-3.11-3.36-3.99-5.22c-5.01-10.58-10.98-20.54-18.36-29.64
	c-3.81-4.69-8.1-8.85-13.41-11.82c-8.83-4.93-15.62-1.43-16.9,8.72c-0.98,7.76,1.95,15.11,2.57,22.71c0.21,2.63,1.36,5.2,1.48,7.82
	c0.22,4.86,2.74,7.47,6.69,10.18c12.39,8.49,21.53,19.77,25.98,34.39c2.28,7.51,2.84,15.08-0.93,22.34
	c-3.1,5.96-7.71,7.92-13.09,5.89c-5.89-2.22-10.29-9.74-8.78-15.22c1.16-4.2,4.25-5.8,8.3-5.2c2.25,0.33,4.38,1.43,7.08,2.37
	c1.89-4.13,0.56-7.67-1.82-10.85c-7.54-10.08-17.85-15.98-30.02-18.16c-10.04-1.8-16.38,4.12-15.01,14.27
	c1.44,10.67,5.2,19.83,15.5,26.3c19.03,11.95,29.03,29.66,28.33,52.72c-0.11,3.77-0.76,7.33-2.82,10.45
	c-2.87,4.35-7.29,5.88-12.15,4.93c-5.12-1.01-9.38-3.82-10.76-9.27c-1.73-6.85,3.99-12.66,10.85-11.16
	c1.88,0.41,3.42,2.02,5.81,1.71c1.33-8.59-1.65-15.72-7.86-21.44c-6.93-6.39-15.19-10.81-24-13.98c-7.23-2.6-11.48,0-13.19,7.46
	c-1.48,6.44-0.12,12.55,2.48,18.48c4.33,9.88,10.49,18.53,17.99,26.2c4.64,4.76,9.8,9.01,14.41,13.8
	c7.22,7.5,12.98,15.81,13.19,29.19c-12.88-16.23-27.84-27.14-41.83-39.14c-2.51-2.16-5.31-4-8.05-5.87c-3.51-2.4-4.71-0.01-5.4,2.88
	c-0.21,0.89,0.02,1.94,0.23,2.88c2.93,12.84,7.53,24.99,17.88,33.71c30.26,25.5,60.69,50.81,91.18,76.03
	c26.41,21.85,51.36,45.32,76.46,68.63c20.96,19.46,42.3,38.5,63.38,57.82c2.51,2.3,6.45,3.95,5.36,10.28
	c-23.78-20.66-46.26-41.34-69.18-61.51c-23.22-20.44-47.06-40.13-71.37-59.27c-24.21-19.06-48.47-38.06-73.41-56.56
	c1.69,7.23,5.58,13.34,7,20.48c3.88,19.61-9.27,33.01-28.66,27.49c-20.06-5.72-34.15-18.93-40.9-38.93
	c-2.72-8.05-2.13-16.51,1.54-24.4c1.7-3.68,3.79-7.12,8.73-6.97c4.91,0.15,6.64,3.83,8.47,7.4c0.6,1.18,1.04,2.47,1.36,3.75
	c1.76,7.04-1.38,10.79-8.72,10.33C725.8,1642.11,724.6,1641.28,723.17,1642z M830.23,1267.89c-0.71-0.3-1.42-0.6-2.13-0.9
	c-3.52,6.21-6.49,12.81-10.66,18.54c-8.45,11.63-8.64,23.87-4.41,36.84c1.76,5.39,3.96,10.61,6.91,15.41
	c2.99,4.85,6.87,8.99,12.35,11.16c9.77,3.86,16.14,0.24,18.15-10.06c1.11-5.67,0.3-11.29-0.32-16.87c-0.51-4.61-2-8.64-6.2-11.84
	c-5.98-4.56-8.8-11.54-10.82-18.64C830.91,1283.82,830.02,1275.92,830.23,1267.89z M856.63,1222.07
	c-4.84,7.89-8.11,15.3-13.22,21.07c-7.6,8.57-8.1,17.53-4.87,27.57c1.32,4.1,2.47,8.27,4.09,12.24c1.76,4.31,4.15,8.37,7.91,11.29
	c8.76,6.81,19.77,5.67,21.9-7.99c0.36-2.28,0.22-4.64,0.55-6.93C876.03,1258.15,863.77,1241.58,856.63,1222.07z M2680.18,1682.27
	c-8.59-5.68-13.85-14.61-14.45-25.17c-0.53-9.26-0.5-18.56,1.42-27.84c2.82-13.66,4.5-27.48,5.39-41.48
	c0.55-8.67,0.28-17.58,1.42-25.87c2.63-0.61,3.5,0.52,4.58,1.22c29.44,18.94,51.03,45.43,70.63,73.78
	c3.77,5.45,6.79,11.41,9.27,17.64c3.54,8.9,4.48,18.08,3.53,27.45c-1.16,11.47-12.43,22.18-20.86,20.21
	c-8.81-2.05-15.57-15.59-12.9-26.29c1.21-4.84,2.83-9.65,9.13-10.83c1.55,4.87,0.18,10.2,3.69,14.4c3.61,4.32,7.97,6.17,12.16,4.43
	c3.97-1.65,6.32-6.38,5.44-11.65c-1.53-9.19-6.72-15.9-14.92-19.99c-8.87-4.43-17.32-1.61-22.15,6.93
	c-6.95,12.29-7.55,24.6,0.11,36.84c6.18,9.88,14.63,17.22,25.41,21.6c10.61,4.31,20.82,0.71,26.66-9.11
	c5.5-9.26,6.95-19.28,5.13-29.82c-3.2-18.53-12.37-34.3-23.11-49.28c-21.72-30.31-48.97-55.1-78.28-77.76
	c-3.38-2.62-5.19-5.32-6.1-9.56c-3.72-17.35-10.32-33.59-19.09-49.09c-7.4-13.07-16.3-25.04-25.57-37.34
	c1.82-0.64,3.05-1.06,4.27-1.51c15.17-5.52,18.73-14.03,11.95-28.61c-0.7-1.51-1.55-2.95-2.38-4.38
	c-7.48-12.91-18.03-22.92-29.7-31.98c-2.11-1.64-5.59-2.31-5.96-6.59c3.23,0,6.19-0.02,9.15,0c5.19,0.03,10.4-0.58,12.79-5.84
	c2.06-4.54-0.96-8.41-3.62-11.79c-9.33-11.86-20.1-22.19-33.31-29.71c-1.61-0.91-3.27-2.49-5.62-1.44c0.68,2.29,2.68,3.35,4.29,4.78
	c5.95,5.29,12.19,10.31,16.98,16.76c4.9,6.59,3.74,9.31-4.28,12.04c-4.27,1.45-8.57,1.49-12.83,1.15
	c-16.2-1.32-32.46-2.37-48.55-4.56c-38.8-5.28-77.53-11.1-116.28-16.78c-39.75-5.82-79.4-12.28-118.94-19.41
	c-10.31-1.86-20.49-5.11-31.53-5.11c0.81,3.88,3.45,4.45,6.04,5.01c5.19,1.13,10.36,2.35,15.59,3.28
	c34.99,6.19,70.15,11.57,104.96,18.63c54.05,10.97,108.29,20.66,163,27.58c24.92,3.15,44.42,15.28,59.21,34.9
	c8.84,11.73,3.36,24.39-11,26.77c-10.17,1.69-19.95-0.06-28.45-6.41c-5.71-4.26-8.88-10.03-10.49-17.12
	c10.96-0.61,14.6-3.68,13.85-10.89c-0.8-7.71-7.86-12.62-15.95-11.1c-6.48,1.22-10.42,7.62-9.12,15.4
	c1.8,10.8,6.41,20.04,14.74,27.54c9.97,8.97,21.75,13.92,34.47,17.16c4.19,1.07,8.05,2.39,10.97,6.16
	c16.94,21.93,29.38,45.99,34.25,73.45c1.56,8.79,3.63,17.8,1.72,27.28c-3.34-1.74-3.76-4.6-4.98-6.85
	c-7.18-13.27-15.84-25.43-26.83-35.8c-12.03-11.34-25.49-20.35-41.88-24.1c-18.27-4.18-32.15,2.07-41.02,18.43
	c-1.74,3.2-3.14,6.61-4.44,10.02c-8.11,21.29-7.18,43.05-2.96,64.87c3.58,18.52,13.76,33.87,25.11,48.26
	c9.12,11.57,21.48,18.63,36.31,21.03c16.43,2.65,29.61-7.51,29.86-23.79c0.19-12.07-3.92-22.84-11.64-32.17
	c-2.61-3.16-6.13-5.18-9.88-6.58c-8.11-3.03-17.31-0.77-21.88,5.1c-4.33,5.57-3.68,16.89,1.34,23.45c3.69,4.82,9.56,5.81,14.06,2.39
	c4.73-3.59,4.98-8.89,0.86-13.97c-1.63-2.01-4.66-2.41-5.76-5.2c2.87-3.34,5.81-5.11,10.4-2.9c11,5.3,15.98,20.82,10.27,32.85
	c-5.42,11.42-14.65,14.35-27.48,7.42c-23.71-12.81-36.95-32.88-38.72-59.94c-0.48-7.27-0.17-14.7,0.68-21.94
	c1.72-14.6,4.36-29.08,13.99-40.96c7.9-9.75,17.92-14.04,30.75-11.62c12.78,2.4,22.59,9.3,30.92,18.71
	c12.97,14.64,21.86,31.68,29.06,49.74c2.3,5.78,2.86,11.17,1.46,17.41c-6.48,28.97-3.47,56.88,10.86,83.2
	c6.24,11.46,14.77,20.81,26.03,27.74C2690.12,1696.28,2688.86,1688.01,2680.18,1682.27z M2057.42,865.15
	c-13.03,4.29-25.47,9.74-35.85,19.03c-9.92,8.89-13.29,20.39-9.26,31.36c10.85,29.57,54.9,40.24,77.79,18.72
	c5.49-5.16,9.52-11.38,7.69-19.47c-1.96-8.67-7.07-15.08-15.53-18.06c-8.81-3.1-16.99-1.49-24.1,4.8
	c-3.63,3.21-6.41,6.79-5.61,12.07c0.68,4.47,3.46,7.22,7.55,8.39c4.18,1.19,8.09-0.41,10.76-3.51c2.68-3.11,2.29-6.72-0.64-9.88
	c-0.8-0.86-2.41-1.81-1.19-3.23c1.36-1.58,3.14-2.11,5.36-1.42c5.91,1.84,11.73,10.05,11.92,17.11c0.17,6.4-3.7,11.71-10.29,14.39
	c-4.47,1.82-8.99,2.21-13.69,1.21c-9.09-1.92-16.82-6.45-22.93-13.26c-15.7-17.51-11.85-36.69,9.16-47.41
	c5.96-3.04,12.18-5.29,18.65-6.91c15.21-3.8,30.67-5.56,46.32-5.77c4.19-0.05,8.6,0.35,10.32-4.78c-1.14-1.26-2.1-0.77-3.06-0.62
	c-11.33,1.84-22.56,0.88-33.47-2.26c-9.56-2.75-11.5-8.11-6.71-16.56c3.46-6.11,7.87-11.48,13.25-16.07
	c17.58-15,38.01-24.25,60.19-29.93c32.27-8.27,64.65-15.54,98.34-9.96c2.78,0.46,6.01,0.73,8.18-2.46c-2.06-2.63-4.96-3.27-7.8-3.56
	c-8.9-0.92-17.78-2.43-26.79-1.78c-24.5,1.78-48.92,4.23-72.87,9.99c-23.39,5.62-46.12,12.98-66.05,27.03
	c-10.15,7.16-18.91,15.72-24.82,26.88c-4.28,8.07-5.81,15.73,3.46,22.54C2062.62,864.02,2059.93,864.33,2057.42,865.15z
	 M2635.68,1319.34c-4.25-9.47-6.28-19.63-9.93-29.27c-6.62-17.52-14.11-34.56-28.05-47.75c-9.63-9.12-21.89-14.22-33.41-13.51
	c23.35,9.28,35.1,27.25,42.61,48.64c4.51,12.85,8.49,25.9,12.69,38.86c2.06,6.37,4.81,12.43,8.84,17.78
	c6.8,9.01,15.67,12.83,27.14,9.55C2645.7,1337.91,2640.11,1329.21,2635.68,1319.34z M2629.11,1284.23
	c-0.97,1.05-0.82,2.43-0.19,3.69c1.28,2.56,3.82,3.61,6.07,4.98c12.35,7.53,26.3,10.91,39.86,15.29c0.62,0.2,1.3,0.32,1.95,0.33
	c3.87,0.1,5.53-2.46,3.5-5.79c-3.27-5.35-8.13-8.62-14.24-10.1c-11.22-2.71-23.07-3.14-33.36-9.22c-0.27-0.16-0.65-0.13-1.37-0.27
	C2630.77,1283.4,2629.7,1283.59,2629.11,1284.23z M2417.76,959.07c4.27-0.41,8.59-0.44,12.77-1.73c2-0.62,4.18-1.12,4.61-3.23
	c0.58-2.87-2.1-3.95-4.07-4.92c-7.27-3.6-14.75-2.7-22.34-0.91c-8.27,1.95-16.36,5.45-25.22,3.2c-2.03-0.52-4.19,0.33-4.67,2.65
	c-0.52,2.52,1.77,3.63,3.53,4.05c5.13,1.2,10.36,1.95,14.06,2.62C2404.58,960.14,2411.18,959.69,2417.76,959.07z M1426.6,2689.48
	c-10.36,1.55-25.92,20.07-25.69,30.38c0.08,3.81,3.36,6.81,7.21,6.58c6.08-0.36,10.35-4.54,9.88-10.85
	c-0.54-7.39,2.55-12.65,7.65-17.45c2.25-2.12,5.92-3.17,6.37-6.84C1430.63,2688.82,1428.42,2689.2,1426.6,2689.48z M701.68,1361.24
	c-2.38,4.83,2.24,13.21,7.68,13.26c5.57,0.05,10.48,1.11,14.81,4.7c2.86,2.38,4.83,5.47,7.06,8.36c0.99,1.28,2.07,2.94,4.02,2.1
	c1.83-0.79,1.68-2.68,1.51-4.31c-1.14-10.66-18.18-27.2-28.63-27.86C705.04,1357.13,702.93,1358.7,701.68,1361.24z M2497.68,1031.27
	c2.27-0.04,5.13,0.21,5.86-2.54c0.84-3.13-1.8-4.8-4.12-5.99c-5.08-2.6-10.55-4.04-16.25-3.28c-10.38,1.38-20.59,4.75-31.25,1.98
	c-1.53-0.4-3.48-0.01-3.8,2.13c-0.28,1.88,1,3.09,2.57,3.78c1.8,0.79,3.7,1.33,5.57,1.96c8.35,2.82,17,1.79,23.84,1.98
	C2487.1,1031.3,2492.39,1031.36,2497.68,1031.27z M1092.81,853.38c-1.78-2.62-4.18-4.37-7.51-3.66c-3.29,0.7-4.98,3.28-5.78,6.25
	c-1.17,4.36-1.4,8.46,3.57,11.1c6.96,3.69,9.02,10.15,9.12,17.53c0.02,1.33-0.08,2.67,0.07,3.98c0.17,1.53-0.32,3.58,1.86,4.03
	c2.49,0.51,3.39-1.49,4.3-3.26c1.89-3.69,1.91-7.67,1.81-11.69C1100.17,868.84,1097.8,860.7,1092.81,853.38z M1700.9,691.69
	c8.16-7.96,12.35-17.8,13.04-29.16c0.21-3.48-0.23-6.72-3.78-8.46c-3.55-1.75-6.48,0.27-9.18,2.09c-3.9,2.62-4.43,6.5-2.52,10.51
	c3.27,6.87,1.07,12.8-2.47,18.73c-1.64,2.75-4.65,4.79-4.73,8.75C1695.29,696.42,1698.34,694.18,1700.9,691.69z M647.26,1612.82
	c-0.98,6.3,5.65,12.39,11.75,10.34c4.74-1.59,8.99-1.33,13.33,0.54c3.06,1.31,5.67,3.32,8.19,5.53c1.84,1.61,4.11,4.52,6.56,1.85
	c1.97-2.15,0.09-5.2-1.39-7.14c-7.4-9.66-17.47-14.82-27.15-16.46C652.07,1607.15,648.06,1607.63,647.26,1612.82z M2712.96,1976.98
	c-1.43-6.26-3.98-8.72-10.26-7.91c-7.03,0.9-12.18-1.75-16.74-6.51c-1.6-1.67-3.15-3.38-4.66-5.14c-1.1-1.28-2.22-2.77-4.03-1.57
	c-1.52,1.01-1.41,2.82-1.16,4.5c0.65,4.49,3.43,7.96,6.14,11.16c6.34,7.48,14.17,12.74,22.72,13.84
	C2712.17,1985.12,2714.22,1982.47,2712.96,1976.98z M992.35,933.3c-2.68-2.59-5.56-3.64-8.83-1.39c-4.74,3.26-4.51,13.72,0.83,15.87
	c8.72,3.52,11.14,10.55,12.53,18.63c0.41,2.37-0.95,6.28,2.84,6.24c3.59-0.04,3.79-3.97,4.39-6.82c0.2-0.95,0.03-1.97,0.03-2.96
	C1003.14,951.86,1000.71,941.4,992.35,933.3z M2605.99,2212.84c-4.97-0.69-8.61-2.82-11.58-6.67c-2.02-2.63-3.87-5.3-5.11-8.42
	c-0.67-1.69-1.37-4.22-3.95-3.4c-2.4,0.76-1.8,3.29-1.7,5.12c0.72,13.95,8.9,23.05,20.26,29.57c6.26,3.59,10.12,0.88,10.3-6.34
	C2614.36,2216.2,2612.73,2213.78,2605.99,2212.84z M771.71,2123.42c-8.82-9.48-32.32-7.97-40.34-2.38
	c-3.69,2.57-3.99,6.78-0.86,10.2c4.37,4.77,9.98,5.2,14.49,0.27c3.54-3.86,7.53-5.13,12.4-4.86c4.91,0.27,9.83,0.53,15.84,0.86
	C772.38,2125.15,772.29,2124.06,771.71,2123.42z M685.72,1591.04c-9.01-5.1-13.49-13.45-17.07-22.58c-0.6-1.53-1.48-3-2.48-4.31
	c-1.93-2.52-4.35-4.41-7.69-2.8c-3.15,1.53-3.98,4.58-3.22,7.65c0.7,2.86,2.02,5.62,3.42,8.23c5.25,9.78,13.9,15.91,23.36,20.98
	c2.33,1.25,5.27,1.89,6.18-1.96C688.42,1594.16,688.01,1592.33,685.72,1591.04z M1404.74,2691.8c-3.43,0.71-5.98,2.93-8.3,5.19
	c-7.14,6.97-14.97,12.93-23.66,17.87c-2.51,1.43-4.47,3.88-6.53,6.01c-1.43,1.47-2.33,3.46-1.48,5.4c1.12,2.58,3.79,2.76,6.02,2.2
	c6.55-1.64,12.39-4.75,16.65-10.12c5.74-7.25,11.21-14.71,18.7-20.34c1.36-1.02,2.6-2.06,2.23-4.25
	C1407.84,2692.19,1406.76,2691.38,1404.74,2691.8z M1732.6,689.51c4.64-8.54,11.55-14.34,20.46-18.06c2.05-0.86,3.71-2.73,5.44-4.26
	c1.92-1.71,2.63-3.94,1.46-6.28c-1.12-2.24-3.33-3.19-5.71-3.41c-2.78-0.26-5.16,1.08-7.45,2.41c-7.07,4.09-12.34,9.94-16.5,16.9
	c-2.21,3.7-4.69,7.29-5.49,11.62c-0.36,1.96-0.38,4.09,1.85,4.57C1729.93,693.39,1731.48,691.56,1732.6,689.51z M1116.92,868.36
	c0.62,2.25,2.32,3.13,4.56,2.64c1.88-0.42,2.57-1.88,2.63-3.68c0.03-0.99,0.16-2.01-0.01-2.97c-1.52-8.51,0.52-16.19,4.93-23.51
	c1.85-3.07,3.36-6.45,3.13-10.27c-0.29-4.89-3.83-7.04-8.15-4.8c-3.11,1.61-4.69,4.52-5.95,7.63c-2.39,5.88-3.75,11.95-3.04,18.91
	C1114.2,857.45,1115.43,862.93,1116.92,868.36z M1999.67,2678.37c-7.5,6.99-12.27,26.67-6.41,39.06c1.91,4.03,6.32,5.08,10,2.75
	c4.74-2.99,6.45-9.23,2.75-13.55c-5.23-6.11-4.73-12.76-3.35-19.68c0.62-3.13,2.86-6.06,0.76-9.33
	C2001.98,2677.19,2000.72,2677.39,1999.67,2678.37z M638.47,1578.22c2.66,7.53,7.83,12.93,14.98,16.38
	c6.86,3.31,13.43,7.04,19.34,11.9c2.08,1.71,4.34,5.59,7.17,2.31c2.25-2.61-0.41-5.51-2.6-7.63c-0.94-0.91-1.98-1.76-3.06-2.49
	c-7.99-5.41-15.07-11.76-21-19.42c-2.92-3.77-6.95-6.03-11.69-7.42C638.73,1571.62,637.11,1574.36,638.47,1578.22z M2598.9,2239.61
	c-4.74-5.61-9.06-11.45-12.11-18.19c-0.86-1.91-1.45-5.13-4.61-3.99c-2.79,1.01-1.96,3.94-1.69,6.13c0.2,1.59,0.9,3.27,1.82,4.6
	c6.15,8.87,9.6,18.9,12.92,29.02c0.72,2.18,1.9,4.24,3.11,6.21c1.45,2.34,3.41,4.42,6.47,3.63c3.56-0.93,2.48-4.16,2.76-6.64
	C2607.27,2252.37,2603.94,2245.58,2598.9,2239.61z M1740.62,641.78c-5.32,3.38-9.96,7.45-12.79,13.5
	c-4.06,8.65-6.91,17.96-13.32,25.43c-1.12,1.3-2.82,3.38-0.55,5.15c1.83,1.43,3.86,0.71,5.41-0.7c1.45-1.33,2.96-2.79,3.86-4.5
	c5.16-9.79,12.37-17.96,19.79-26.01c2.48-2.69,4.02-6.04,4.76-9.35C1747.91,641.27,1744.36,639.41,1740.62,641.78z M2700.88,1426.76
	c3.01-0.66,5.81-2.01,6.42-5.4c0.58-3.26-1.23-5.73-3.56-7.76c-4.08-3.54-7.8-4.08-12.43-0.11c-5.61,4.8-11.51,4.23-17.76,2.87
	c-1.92-0.42-3.76-1.27-5.6-2.01c-1.25-0.5-2.56-1.1-3.54,0.23c-1.1,1.51-0.77,3.15,0.32,4.55c1.45,1.84,3.42,3.02,5.41,4.26
	c6.47,4.05,13.96,3.59,20.81,5.05C2694.38,1427.87,2697.66,1427.46,2700.88,1426.76z M1985.01,2692.31
	c-2.21-0.96-3.72,0.85-4.71,2.56c-0.98,1.69-1.84,3.56-2.23,5.46c-2.1,10.11-5.86,19.56-10.52,28.73c-1.32,2.6-1.93,5.61-2.64,8.48
	c-0.7,2.84,0.24,5.55,2.79,6.75c2.31,1.09,4.49-0.47,5.95-2.46c3.13-4.29,5.79-8.77,6.87-14.13c2.08-10.3,1.12-21.17,5.62-29.8
	C1986.42,2695.05,1986.66,2693.02,1985.01,2692.31z M733.69,1358.51c-8.27-10.01-14.98-21.04-21.36-32.3
	c-0.63-1.12-1.85-1.9-2.77-2.86c-1.97-2.06-4.28-3.65-6.98-1.82c-2.22,1.5-1.8,4.23-1.22,6.43c1.71,6.52,4.49,12.51,9.82,16.97
	c6.9,5.77,13.45,11.85,18.52,19.38c0.72,1.07,1.85,1.91,4.25,1.77C735.41,1363.42,735.55,1360.76,733.69,1358.51z M1019.1,945.89
	c0.68,1.6,1.97,2.77,3.84,2.47c2.32-0.37,3.22-2.06,3.18-4.27c-0.02-0.98-0.09-1.99-0.38-2.91c-2.65-8.28-1.7-16.3,1.66-24.14
	c1.62-3.78,1.63-7.72,1.42-11.69c-0.2-3.62-2.57-4.3-5.52-3.77c-3.22,0.58-5.14,2.87-6.29,5.73c-1.99,4.96-2.76,10.17-2.74,17.97
	C1014.43,930.8,1015.95,938.52,1019.1,945.89z M1178.88,2615.94c1.45-7.05,5.74-11.71,11.69-15.15c1.71-0.99,3.62-1.61,5.38-2.51
	c1.52-0.77,2.84-1.76,2.27-3.8c-0.46-1.64-1.94-1.56-3.18-1.72c-10.27-1.31-29.57,11.22-32.44,21.03c-1.87,6.38,0.42,9.48,7.05,9.51
	C1176.06,2623.33,1177.56,2622.35,1178.88,2615.94z M2576.27,2263.68c0.57,3.6,2.21,6.76,6.23,6.28c3.61-0.43,5.32-3.38,5.73-7.12
	c1.53-13.83-4.03-25.23-11.98-35.85c-0.39-0.53-0.84-1.1-1.4-1.4c-1.68-0.9-3.33-2.37-5.36-0.62c-1.53,1.32-1.39,3.09-0.81,4.57
	c0.84,2.14,2.18,4.08,3.29,6.11c3.25,5.98,4.77,12.33,4.08,19.35C2575.25,2257.77,2575.8,2260.73,2576.27,2263.68z M1970.87,2689.29
	c-3.59-0.29-4.58,3.28-4.93,6.33c-0.54,4.79-3.17,8.65-5.35,12.7c-2.4,4.46-6.97,7.06-9.92,11.02c-2.27,3.04-5.66,6.35-2.34,10.55
	c2.27,2.87,8.46,1.69,12.37-2.01c0.72-0.68,1.41-1.4,2.03-2.17c6.87-8.55,9.59-18.68,11.19-28.95
	C1973.33,2693.8,1975.14,2689.63,1970.87,2689.29z M2674.83,1989.17c-0.31-0.11-0.63-0.22-0.95-0.26c-2.96-0.37-4.38,0.87-4.14,3.92
	c0.17,2.17,1.41,3.52,3.02,4.87c6.4,5.36,9.7,12.43,11.11,20.55c0.39,2.27,1.12,4.52,1.98,6.66c1.29,3.21,3.21,6.31,7.24,5.3
	c3.72-0.93,4.82-4.22,4.86-7.81C2698,2012.44,2684,1992.3,2674.83,1989.17z M2729.63,1451.88c0.9-2.48-0.65-4.57-2.58-5.98
	c-4.51-3.3-8.96-6.35-14.86-7.46c-8.4-1.58-17.18-0.92-25.27-4.51c-2.73-1.21-7.2-3.31-8.52,0.69c-1.2,3.66,3.26,4.99,6.35,6.13
	c0.62,0.23,1.27,0.38,1.93,0.48c9.3,1.46,17.64,5.45,25.83,9.82c3.55,1.89,7.34,2.93,10.57,3.5
	C2726.23,1454.73,2728.71,1454.42,2729.63,1451.88z M2678.81,1982.63c0.67,2.62,2,4.92,4.02,6.78c7.65,7.06,13.68,15.38,19.03,24.25
	c1.91,3.16,4.52,5.76,7.65,7.75c1.44,0.92,3.12,1.5,4.73,0.7c2.19-1.09,2.16-3.32,1.73-5.22c-1.59-7.01-4.98-12.95-10.71-17.49
	c-7.02-5.57-14.53-10.61-19.84-18.09c-0.97-1.37-2.26-2.45-4.23-2.35C2679.71,1979.67,2678.31,1980.66,2678.81,1982.63z
	 M738.62,1355.98c0.68,0.62,1.76,0.92,2.71,1.11c3.12,0.62,5.24-1.77,4.08-4.64c-0.48-1.2-1.24-2.37-2.13-3.3
	c-6.73-7.03-9.61-15.61-10.28-25.1c-0.17-2.35-0.71-4.57-2.02-6.56c-1.52-2.3-3.38-4.21-6.43-3.33c-2.41,0.69-3.89,2.44-4.03,5.06
	c-0.07,1.32-0.01,2.64-0.01,3.96C721.45,1336.91,728.95,1347.07,738.62,1355.98z M1149.61,2610.31c7.21-5.3,13.96-11.27,22.54-14.49
	c1.75-0.66,3.99-2,3.22-4.27c-0.94-2.79-3.71-2.41-5.98-1.9c-1.59,0.36-3.15,1.12-4.56,1.96c-9.2,5.47-19.03,9.32-29.37,12.05
	c-2.47,0.65-4.77,2.3-6.88,3.85c-1.81,1.34-4.11,3.01-3.16,5.67c1.02,2.86,3.8,3.37,6.88,3.44
	C1138.2,2615.46,1144.37,2614.17,1149.61,2610.31z M1397.67,2689.12c0.37-0.52,0.6-1.18,0.78-1.8c0.87-3.15-1.15-5.19-4.3-4.44
	c-1.7,0.4-2.82,1.46-4,2.69c-5.45,5.68-12.09,8.88-19.97,9.96c-3.86,0.53-7.85,1.52-10.92,4.34c-3.61,3.31-2.69,7.79,1.94,9.11
	c1.55,0.44,3.28,0.29,6.85,0.55C1379.55,2707.14,1389.82,2700.01,1397.67,2689.12z M752.8,2099.08c2.06-0.28,3.85-1.19,3.83-3.69
	c-0.02-2.41-1.72-3.82-3.75-3.84c-11.03-0.13-19.22-5.98-27.29-12.59c-4.61-3.77-9.7-3.85-11.61-1.27
	c-2.24,3.02-0.51,8.17,4.18,11.97c1.53,1.24,3.24,2.31,4.97,3.24c7.71,4.15,16.05,5.93,24.72,6.22
	C749.51,2099.13,751.18,2099.31,752.8,2099.08z M746.29,2103.49c-9.81-0.45-18.86-3.7-27.98-6.76c-3.21-1.08-6.41-1.73-9.77-1.48
	c-2.24,0.17-5.04-0.27-5.83,2.65c-0.83,3.03,1.02,5.17,3.47,6.52c4.36,2.39,8.74,4.81,13.97,4.88c9.94,0.13,19.93-0.59,29.74,1.9
	c1.84,0.47,3.97,0.39,6.29-1.47C751.9,2104.92,750.71,2103.69,746.29,2103.49z M1136.51,2597.29c11.59-1.02,21.72-5.43,30.33-13.25
	c1.25-1.13,2.27-2.6,1.23-4.34c-1.13-1.88-2.9-2.64-5.07-1.91c-0.93,0.31-1.87,0.73-2.67,1.3c-7.12,5.11-15.21,5.96-23.63,5.61
	c-2.64-0.11-5.31-0.01-7.93,0.27c-2.8,0.3-5.18,1.51-5.65,4.64c-0.53,3.55,1.64,5.71,4.57,6.82c2.11,0.8,4.52,0.79,5.07,0.87
	C1135.18,2597.3,1135.85,2597.35,1136.51,2597.29z M2675.13,1447.23c-0.74,3.25,1.95,4.51,4.57,5.33c0.94,0.3,1.98,0.27,2.92,0.57
	c6.75,2.12,12.68,5.5,17.3,11.05c1.68,2.02,3.62,3.93,5.77,5.4c2.6,1.77,5.32,4.63,8.84,1.73c2.41-1.98,2.3-7.51-0.17-10.99
	c-0.95-1.34-2.15-2.55-3.4-3.61c-8.64-7.37-19.02-10.42-29.58-12.01C2678.67,1444.79,2675.78,1444.39,2675.13,1447.23z
	 M1100.31,839.93c1.77,9.76,4.64,19.34,4.17,29.44c-0.08,1.64,0.8,3.4,2.82,3.44c1.92,0.04,2.96-1.41,3.16-3.17
	c0.27-2.3,0.53-4.65,0.34-6.94c-0.84-10.62-0.79-21.16,1.26-31.68c0.63-3.25,0.17-6.62-1.4-9.71c-1.96-3.85-5.12-4.27-7.54-0.74
	c-2.97,4.33-3.05,9.37-2.86,15.79C1100.27,836.61,1100.02,838.32,1100.31,839.93z M1009.21,907.26c-1.08-4.01-0.68-10.15-6.09-9.77
	c-5.29,0.37-4.5,6.31-4.9,10.57c-1.36,14.44,8.27,26.53,8.62,40.6c0.04,1.41,1.41,2.29,2.83,2.22c1.4-0.07,2.46-1.01,2.79-2.41
	c1.01-4.34-0.1-8.53-0.78-12.8c-1.19-7.49-2.01-15.04-2.87-21.71C1009.74,911.13,1009.76,909.28,1009.21,907.26z M796.63,2258.12
	c10.04,1.58,20.48,0.34,30.4,3.63c1.21,0.4,2.68-0.05,3.24-1.53c0.56-1.48-0.41-2.52-1.38-3.4c-3.81-3.47-8.46-5.38-13.47-5.67
	c-9.79-0.57-18.7-3.68-27.42-7.89c-2.43-1.17-5.14-3.52-8.61-0.79C782.07,2251.05,788.19,2256.79,796.63,2258.12z M1442.66,822.3
	c-0.1-5.96-4.35-9.97-10.13-9.56c-6.06,0.43-10.54,5.21-10.38,11.06c0.16,5.92,4.22,9.69,10.23,9.49
	C1438.26,833.09,1442.76,828.28,1442.66,822.3z M1653.2,2630.74c-5.96-0.09-10.7,4.32-11.15,10.36c-0.42,5.65,3.04,9.81,8.42,10.15
	c6.56,0.41,11.91-4.1,12.13-10.23C1662.82,2634.82,1659.16,2630.83,1653.2,2630.74z"/>
</svg>
