0
SECTION
2
HEADER
9
$INSUNITS
70
4
9
$ACADVER
1
AC1014
9
$HANDSEED
5
FFFF
0
ENDSEC
0
SECTION
2
TABLES
0
TABLE
2
VPORT
5
8
100
AcDbSymbolTable
0
ENDTAB
0
TABLE
2
LTYPE
5
5
100
AcDbSymbolTable
0
LTYPE
5
14
100
AcDbSymbolTableRecord
100
AcDbLinetypeTableRecord
2
BYBLOCK
70
0
0
LTYPE
5
15
100
AcDbSymbolTableRecord
100
AcDbLinetypeTableRecord
2
BYLAYER
70
0
0
ENDTAB
0
TABLE
2
LAYER
5
2
100
AcDbSymbolTable
70
2
0
LAYER
5
50
100
AcDbSymbolTableRecord
100
AcDbLayerTableRecord
2
0
70
0
6
CONTINUOUS
0
ENDTAB
0
TABLE
2
STYLE
5
3
100
AcDbSymbolTable
70
1
0
STYLE
5
11
100
AcDbSymbolTableRecord
100
AcDbTextStyleTableRecord
2
STANDARD
70
0
0
ENDTAB
0
TABLE
2
VIEW
5
6
100
AcDbSymbolTable
70
0
0
ENDTAB
0
TABLE
2
UCS
5
7
100
AcDbSymbolTable
70
0
0
ENDTAB
0
TABLE
2
APPID
5
9
100
AcDbSymbolTable
70
2
0
APPID
5
12
100
AcDbSymbolTableRecord
100
AcDbRegAppTableRecord
2
ACAD
70
0
0
ENDTAB
0
TABLE
2
DIMSTYLE
5
A
100
AcDbSymbolTable
70
1
0
ENDTAB
0
TABLE
2
BLOCK_RECORD
5
1
100
AcDbSymbolTable
70
1
0
BLOCK_RECORD
5
1F
100
AcDbSymbolTableRecord
100
AcDbBlockTableRecord
2
*MODEL_SPACE
0
BLOCK_RECORD
5
1B
100
AcDbSymbolTableRecord
100
AcDbBlockTableRecord
2
*PAPER_SPACE
0
ENDTAB
0
ENDSEC
0
SECTION
2
BLOCKS
0
BLOCK
5
20
100
AcDbEntity
100
AcDbBlockBegin
2
*MODEL_SPACE
0
ENDBLK
5
21
100
AcDbEntity
100
AcDbBlockEnd
0
BLOCK
5
1C
100
AcDbEntity
100
AcDbBlockBegin
2
*PAPER_SPACE
0
ENDBLK
5
1D
100
AcDbEntity
100
AcDbBlockEnd
0
ENDSEC
0
SECTION
2
ENTITIES
0
LINE
5
100
100
AcDbEntity
8
0
100
AcDbLine
10
0
20
0
30
0
11
0
21
-254
31
0
0
LINE
5
101
100
AcDbEntity
8
0
100
AcDbLine
10
0
20
-254
30
0
11
-72.899999999999991
21
-254
31
0
0
LINE
5
102
100
AcDbEntity
8
0
100
AcDbLine
10
-88.900000000000006
20
-237.99999999999997
30
0
11
-88.900000000000034
21
1.0887110044419973e-14
31
0
0
LINE
5
103
100
AcDbEntity
8
0
100
AcDbLine
10
-88.900000000000034
20
1.0887110044419973e-14
30
0
11
0
21
0
31
0
0
CIRCLE
5
104
100
AcDbEntity
8
0
100
AcDbCircle
10
-72.900000000000006
20
-54.999999999999986
30
0
40
7.9999999999999991
210
0
220
0
230
1
0
CIRCLE
5
105
100
AcDbEntity
8
0
100
AcDbCircle
10
-72.899999999999991
20
-237.99999999999997
30
0
40
7.9999999999999858
210
0
220
0
230
1
0
LWPOLYLINE
5
106
100
AcDbEntity
8
0
100
AcDbPolyline
90
5
70
1
43
0.0
10
-218.90000000000003
20
3.4767722627793362e-14
10
-307.80000000000007
20
4.059387994533983e-14
10
-307.80000000000007
20
-237.99999999999986
42
0.41421356237309509
10
-291.79999999999995
20
-253.99999999999994
10
-218.90000000000003
20
-253.99999999999994
0
CIRCLE
5
107
100
AcDbEntity
8
0
100
AcDbCircle
10
-291.79999999999995
20
-237.99999999999986
30
0
40
8.0000000000000142
210
0
220
0
230
1
0
LWPOLYLINE
5
108
100
AcDbEntity
8
0
100
AcDbPolyline
90
4
70
1
43
0.0
10
-274.80000000000007
20
-60.999999999999957
10
-297.80000000000001
20
-60.999999999999957
10
-297.80000000000001
20
-48.999999999999957
10
-274.80000000000007
20
-48.999999999999957
0
ARC
5
109
100
AcDbEntity
8
0
100
AcDbCircle
10
-72.899999999999991
20
-237.99999999999997
30
0
40
16.000000000000014
210
0
220
0
230
1
100
AcDbArc
50
180
51
270
0
LWPOLYLINE
5
110
100
AcDbEntity
8
0
100
AcDbPolyline
90
4
70
1
43
0.0
10
-59.999999999999993
20
-159.49999999999997
10
-40
20
-159.49999999999997
42
0.99999999999999989
10
-40
20
-133.49999999999997
10
-59.999999999999993
20
-133.49999999999997
42
0.99999999999999989
0
CIRCLE
5
111
100
AcDbEntity
8
0
100
AcDbCircle
10
-50
20
-146.5
30
0
40
8.0000000000000071
210
0
220
0
230
1
0
CIRCLE
5
112
100
AcDbEntity
8
0
100
AcDbCircle
10
-32
20
-146.5
30
0
40
1.5000000000000071
210
0
220
0
230
1
0
CIRCLE
5
113
100
AcDbEntity
8
0
100
AcDbCircle
10
-68
20
-146.5
30
0
40
1.4999999999999927
210
0
220
0
230
1
0
LWPOLYLINE
5
114
100
AcDbEntity
8
0
100
AcDbPolyline
90
4
70
1
43
0.0
10
-40.000000650232565
20
-126.99999999999997
10
-60.000000894069672
20
-126.99999999999997
42
0.99999999999999989
10
-60.000000894069672
20
-129.99999999999997
10
-40.000000650232565
20
-129.99999999999997
42
0.99999999999999989
0
LWPOLYLINE
5
115
100
AcDbEntity
8
0
100
AcDbPolyline
90
4
70
1
43
0.0
10
-40.00000055927309
20
-162.99999999999997
10
-60.000000894069672
20
-162.99999999999997
42
0.99999999999999989
10
-60.000000894069672
20
-165.99999999999994
10
-40.00000055927309
20
-165.99999999999994
42
0.99999999999999989
0
LWPOLYLINE
5
116
100
AcDbEntity
8
0
100
AcDbPolyline
90
4
70
1
43
0.0
10
-278.90000000000003
20
-159.49999999999991
10
-258.89999999999998
20
-159.49999999999989
42
0.99999999999999989
10
-258.90000000000003
20
-133.49999999999989
10
-278.90000000000003
20
-133.49999999999991
42
0.99999999999999989
0
CIRCLE
5
117
100
AcDbEntity
8
0
100
AcDbCircle
10
-268.90000000000003
20
-146.49999999999989
30
0
40
8.0000000000000213
210
0
220
0
230
1
0
CIRCLE
5
118
100
AcDbEntity
8
0
100
AcDbCircle
10
-250.90000000000003
20
-146.49999999999991
30
0
40
1.4999999999999858
210
0
220
0
230
1
0
CIRCLE
5
119
100
AcDbEntity
8
0
100
AcDbCircle
10
-286.90000000000003
20
-146.49999999999991
30
0
40
1.4999999999999967
210
0
220
0
230
1
0
LWPOLYLINE
5
120
100
AcDbEntity
8
0
100
AcDbPolyline
90
4
70
1
43
0.0
10
-258.89999999999998
20
-163
10
-279.00000415742397
20
-163
42
0.99999999999999989
10
-279.00000415742397
20
-165.99999999999997
10
-258.89999999999998
20
-165.99999999999997
42
0.99999999999999989
0
LWPOLYLINE
5
121
100
AcDbEntity
8
0
100
AcDbPolyline
90
4
70
1
43
0.0
10
-258.90000000000003
20
-127.00000000000001
10
-279.00000415742397
20
-127.00000000000001
42
0.99999999999999989
10
-279.00000415742397
20
-130.00000000000003
10
-258.90000000000003
20
-130.00000000000003
42
0.99999999999999989
0
CIRCLE
5
122
100
AcDbEntity
8
0
100
AcDbCircle
10
-114.30587338128275
20
-146.49999999999994
30
0
40
8
210
0
220
0
230
1
0
CIRCLE
5
123
100
AcDbEntity
8
0
100
AcDbCircle
10
-163.14671355292387
20
-146.49999999999994
30
0
40
8.0000000000000178
210
0
220
0
230
1
0
CIRCLE
5
124
100
AcDbEntity
8
0
100
AcDbCircle
10
-114.30587338128275
20
-146.49999999999994
30
0
40
13.000000000000005
210
0
220
0
230
1
0
CIRCLE
5
125
100
AcDbEntity
8
0
100
AcDbCircle
10
-163.14671355292387
20
-146.49999999999994
30
0
40
12.999999999999996
210
0
220
0
230
1
0
ENDSEC
0
SECTION
2
OBJECTS
0
DICTIONARY
5
C
100
AcDbDictionary
3
ACAD_GROUP
350
D
3
ACAD_MLINESTYLE
350
17
0
DICTIONARY
5
D
100
AcDbDictionary
0
DICTIONARY
5
1A
330
C
100
AcDbDictionary
0
DICTIONARY
5
17
100
AcDbDictionary
0
ENDSEC
0
EOF
